<?xml version="1.0" encoding="utf-8"?>
<!-- Generator: Adobe Illustrator 21.0.0, SVG Export Plug-In . SVG Version: 6.00 Build 0)  -->
<svg version="1.1" id="Layer_1" xmlns="http://www.w3.org/2000/svg" xmlns:xlink="http://www.w3.org/1999/xlink" x="0px" y="0px"
	 viewBox="0 0 512 512" style="enable-background:new 0 0 512 512;" xml:space="preserve">
<g>
	<path d="M49.5,41.9c-7.1-7.1-18.7-7.1-25.9,0c-7.2,7.1-7.1,18.7,0,25.9l402.3,402.3c7.1,7.1,18.7,7.1,25.9,0
		c7.1-7.2,7.1-18.7,0-25.9L49.5,41.9z"/>
	<path d="M174.8,115.7l19.5,19.5c1.7,1.7,4.3,1.8,6.1,0.3l19-15.6v38.6c0,1.2,0.5,2.4,1.3,3.2l27.4,27.4c1.8,1.8,4.7,1.8,6.5,0
		c0.9-0.9,1.3-2,1.3-3.2v-84.7c0.1-10.3-5.5-19.8-14.5-24.8c-9.3-5-20.7-4.2-29.2,2.1c-0.3,0.2-0.5,0.4-0.8,0.6L175.1,109
		c-2,1.6-2.2,4.5-0.6,6.4C174.6,115.5,174.7,115.6,174.8,115.7z"/>
	<path d="M227.2,322.9c-1.8-1.8-4.7-1.8-6.5,0c-0.9,0.9-1.3,2-1.3,3.2v66L130.2,319c-6.6-5.3-14.7-8.2-23.2-8.2H36.6V201.1h58
		c2.5,0,4.6-2.1,4.6-4.6c0-1.2-0.5-2.4-1.3-3.2l-27.4-27.4c-0.9-0.9-2-1.3-3.2-1.3H27.4C12.3,164.6,0,176.9,0,192v128
		c0,15.1,12.3,27.4,27.4,27.4h79.7l104.4,85.5c0.2,0.2,0.5,0.4,0.8,0.6c8.6,6.4,20.2,7.1,29.5,1.9c8.8-5,14.2-14.5,14.1-24.6v-57.3
		c0-1.2-0.5-2.4-1.3-3.2L227.2,322.9z"/>
	<path d="M329.2,255.9c0,3-0.1,6.1-0.4,9.3c-0.2,2.7,0.8,5.3,2.7,7.1l22.5,22.5c1.8,1.8,4.7,1.8,6.5,0c0.6-0.6,1.1-1.4,1.2-2.3
		c2.6-11.9,4-24.2,4-36.5c0-28.1-6.6-54.7-20.3-81.5c-4.8-8.9-15.8-12.3-24.7-7.5c-8.7,4.6-12.1,15.3-7.8,24.1
		C323.9,212.6,329.2,233.8,329.2,255.9z"/>
	<path d="M402.3,256c0,27.2-3.8,49-10.7,69.3c-1.1,3.3-0.3,7,2.2,9.4l19.2,19.2c1.8,1.8,4.7,1.8,6.5,0c0.4-0.4,0.8-0.9,1-1.5
		c11.6-28,18.4-57.6,18.4-96.4c0-58.5-14.9-95.9-39.1-137.2c-5.2-8.7-16.4-11.5-25.1-6.3c-8.5,5.1-11.4,16.1-6.5,24.7
		C389.8,174.2,402.3,205.5,402.3,256z"/>
	<path d="M454.3,63.3c-5.4-8.5-16.7-11-25.3-5.6c-8.6,5.4-11,16.7-5.6,25.3c31.2,48.9,52,97,52,173c0,54.2-10.2,93.9-27,129.1
		c-0.8,1.7-0.5,3.8,0.9,5.2l20.4,20.4c1.8,1.8,4.7,1.8,6.5,0c0.3-0.3,0.6-0.7,0.8-1.2c24.6-48.1,35-95.2,35-153.5
		C512,171.1,488.9,117.6,454.3,63.3z"/>
</g>
</svg>
