<?xml version="1.0" encoding="utf-8"?>
<!-- Generator: Adobe Illustrator 21.0.0, SVG Export Plug-In . SVG Version: 6.00 Build 0)  -->
<svg version="1.1" id="Layer_1" xmlns="http://www.w3.org/2000/svg" xmlns:xlink="http://www.w3.org/1999/xlink" x="0px" y="0px"
	 viewBox="0 0 512 512" style="enable-background:new 0 0 512 512;" xml:space="preserve">
<g>
	<path d="M243.6,77.9c-2.2-1.5-4.6-2.6-7.2-3.5c-2.6-0.8-5.3-1.2-8.1-1.2c0,0-0.1,0-0.3,0l0,0c-5.7,0-11.4,1.9-16,5.3l-0.8,0.6
		l-104.1,85.5H27.4c-3.7,0-7.4,0.8-10.7,2.2c-4.9,2.1-9.1,5.5-12.1,9.9c-1.5,2.2-2.7,4.6-3.5,7.2C0.4,186.4,0,189.2,0,192v128
		c0,3.7,0.8,7.4,2.2,10.7c2.1,4.9,5.5,9.1,9.9,12.1c2.2,1.5,4.6,2.7,7.2,3.5c2.6,0.8,5.3,1.2,8.1,1.2H107l-0.1-0.1l0.1,0.1l0,0h0
		L211.4,433l0.7,0.6c2.4,1.8,5.1,3.1,7.8,4c2.8,0.9,5.6,1.3,8.4,1.3c4.2,0,8.4-1,12.2-2.8c3.8-1.9,7.3-4.7,9.9-8.3
		c3.5-4.7,5.3-10.4,5.3-16.2v-311c0-3.7-0.8-7.4-2.2-10.7C251.4,85,247.9,80.8,243.6,77.9z M130.2,319l-0.1-0.1
		c-6.5-5.3-14.6-8.1-22.9-8.1H107h-0.1H36.6V201.2h70.6l0.2-18.3l-0.1,18.3h0.2c8.4,0,16.5-3,22.9-8.4l0,0l88.8-72.8v272.4
		L130.2,319z"/>
	<path d="M345.6,174.6c-4.6-9-15.6-12.6-24.6-8c-9,4.6-12.6,15.6-8,24.6c5.2,10.2,9.2,20.5,12,31.2s4.3,21.8,4.3,33.7
		c0,11.6-1.6,22.8-4.4,33.6s-6.9,21.3-12,31.3c-4.5,9-0.9,20,8.1,24.5c9,4.5,19.9,0.9,24.5-8.1c6.1-12.1,11.1-25,14.7-38.6
		c3.5-13.6,5.6-27.9,5.6-42.8c0-15-1.9-29.3-5.4-42.8C356.9,199.6,351.8,186.8,345.6,174.6z"/>
	<path d="M438.9,256c0-14.5-0.9-27.7-2.7-40.2c-2.7-18.7-7.3-35.4-13.5-51.3c-6.2-15.8-14-30.6-22.8-45.8c-5.1-8.7-16.3-11.7-25-6.6
		c-8.7,5.1-11.7,16.3-6.6,25c5.5,9.5,10.4,18.5,14.6,27.4c6.3,13.4,11.1,26.5,14.4,41.2c3.3,14.6,5.1,30.8,5.1,50.2
		c0,12.9-0.8,24.4-2.4,35c-2.3,15.9-6.2,29.7-11.5,43.2s-12.1,26.6-20.2,40.7c-5,8.8-2,19.9,6.8,25c8.6,5.1,19.7,2.1,24.8-6.7
		c5.7-10,11-19.8,15.8-30c7.1-15.2,13-31.1,17-48.7C436.7,296.8,438.9,277.7,438.9,256z"/>
	<path d="M508.2,199.2c-3.9-26.4-10.7-50.1-19.9-72.3S467.6,84,454.4,63.2c-5.4-8.5-16.7-11-25.3-5.6c-8.5,5.4-11,16.7-5.6,25.3
		c8.3,13,15.7,25.7,22.1,38.5c9.6,19.2,17,38.8,22.1,60.5c5.1,21.7,7.8,45.8,7.8,74c0,18.8-1.2,35.8-3.6,51.6
		c-3.5,23.6-9.4,44.4-17.5,64c-8.1,19.6-18.4,38.2-30.8,57.3c-5.5,8.5-3.1,19.8,5.3,25.3c8.4,5.6,19.8,3.2,25.3-5.3
		c8.9-13.6,16.9-27.3,24.1-41.5c10.7-21.3,19.2-43.9,25-68.7c5.8-24.9,8.8-52,8.8-82.6C512.1,235.6,510.8,216.8,508.2,199.2z"/>
</g>
</svg>
