<svg width="1280" height="720" xmlns="http://www.w3.org/2000/svg" xmlns:xlink="http://www.w3.org/1999/xlink" overflow="hidden"><defs><filter id="fx0" x="-10%" y="-10%" width="120%" height="120%" filterUnits="userSpaceOnUse" primitiveUnits="userSpaceOnUse"><feComponentTransfer color-interpolation-filters="sRGB"><feFuncR type="discrete" tableValues="0 0"/><feFuncG type="discrete" tableValues="0 0"/><feFuncB type="discrete" tableValues="0 0"/><feFuncA type="linear" slope="0.431373" intercept="0"/></feComponentTransfer><feGaussianBlur stdDeviation="0.496391 0.496391"/></filter><filter id="fx1" x="-10%" y="-10%" width="120%" height="120%" filterUnits="userSpaceOnUse" primitiveUnits="userSpaceOnUse"><feComponentTransfer color-interpolation-filters="sRGB"><feFuncR type="discrete" tableValues="0 0"/><feFuncG type="discrete" tableValues="0 0"/><feFuncB type="discrete" tableValues="0 0"/><feFuncA type="linear" slope="0.431373" intercept="0"/></feComponentTransfer><feGaussianBlur stdDeviation="0.496391 0.496391"/></filter><filter id="fx2" x="-10%" y="-10%" width="120%" height="120%" filterUnits="userSpaceOnUse" primitiveUnits="userSpaceOnUse"><feComponentTransfer color-interpolation-filters="sRGB"><feFuncR type="discrete" tableValues="0 0"/><feFuncG type="discrete" tableValues="0 0"/><feFuncB type="discrete" tableValues="0 0"/><feFuncA type="linear" slope="0.431373" intercept="0"/></feComponentTransfer><feGaussianBlur stdDeviation="0.496391 0.496391"/></filter><filter id="fx3" x="-10%" y="-10%" width="120%" height="120%" filterUnits="userSpaceOnUse" primitiveUnits="userSpaceOnUse"><feComponentTransfer color-interpolation-filters="sRGB"><feFuncR type="discrete" tableValues="0 0"/><feFuncG type="discrete" tableValues="0 0"/><feFuncB type="discrete" tableValues="0 0"/><feFuncA type="linear" slope="0.431373" intercept="0"/></feComponentTransfer><feGaussianBlur stdDeviation="0.463613 0.463613"/></filter><filter id="fx4" x="-10%" y="-10%" width="120%" height="120%" filterUnits="userSpaceOnUse" primitiveUnits="userSpaceOnUse"><feComponentTransfer color-interpolation-filters="sRGB"><feFuncR type="discrete" tableValues="0 0"/><feFuncG type="discrete" tableValues="0 0"/><feFuncB type="discrete" tableValues="0 0"/><feFuncA type="linear" slope="0.431373" intercept="0"/></feComponentTransfer><feGaussianBlur stdDeviation="0.463613 0.463613"/></filter><filter id="fx5" x="-10%" y="-10%" width="120%" height="120%" filterUnits="userSpaceOnUse" primitiveUnits="userSpaceOnUse"><feComponentTransfer color-interpolation-filters="sRGB"><feFuncR type="discrete" tableValues="0 0"/><feFuncG type="discrete" tableValues="0 0"/><feFuncB type="discrete" tableValues="0 0"/><feFuncA type="linear" slope="0.431373" intercept="0"/></feComponentTransfer><feGaussianBlur stdDeviation="0.496391 0.496391"/></filter><filter id="fx6" x="-10%" y="-10%" width="120%" height="120%" filterUnits="userSpaceOnUse" primitiveUnits="userSpaceOnUse"><feComponentTransfer color-interpolation-filters="sRGB"><feFuncR type="discrete" tableValues="0 0"/><feFuncG type="discrete" tableValues="0 0"/><feFuncB type="discrete" tableValues="0 0"/><feFuncA type="linear" slope="0.431373" intercept="0"/></feComponentTransfer><feGaussianBlur stdDeviation="0.496391 0.496391"/></filter><filter id="fx7" x="-10%" y="-10%" width="120%" height="120%" filterUnits="userSpaceOnUse" primitiveUnits="userSpaceOnUse"><feComponentTransfer color-interpolation-filters="sRGB"><feFuncR type="discrete" tableValues="0 0"/><feFuncG type="discrete" tableValues="0 0"/><feFuncB type="discrete" tableValues="0 0"/><feFuncA type="linear" slope="0.431373" intercept="0"/></feComponentTransfer><feGaussianBlur stdDeviation="0.496391 0.496391"/></filter><filter id="fx8" x="-10%" y="-10%" width="120%" height="120%" filterUnits="userSpaceOnUse" primitiveUnits="userSpaceOnUse"><feComponentTransfer color-interpolation-filters="sRGB"><feFuncR type="discrete" tableValues="0 0"/><feFuncG type="discrete" tableValues="0 0"/><feFuncB type="discrete" tableValues="0 0"/><feFuncA type="linear" slope="0.431373" intercept="0"/></feComponentTransfer><feGaussianBlur stdDeviation="0.496391 0.496391"/></filter><clipPath id="clip9"><rect x="14" y="11" width="89" height="17"/></clipPath><clipPath id="clip10"><rect x="13" y="10" width="33" height="16"/></clipPath><clipPath id="clip11"><rect x="14" y="9" width="141" height="18"/></clipPath><clipPath id="clip12"><rect x="12" y="8" width="126" height="20"/></clipPath><clipPath id="clip13"><rect x="12" y="9" width="54" height="19"/></clipPath><clipPath id="clip14"><rect x="14" y="11" width="62" height="19"/></clipPath><clipPath id="clip15"><rect x="13" y="11" width="109" height="17"/></clipPath><clipPath id="clip16"><rect x="14" y="10" width="124" height="17"/></clipPath><clipPath id="clip17"><rect x="14" y="13" width="80" height="18"/></clipPath></defs><g><rect x="0" y="0" width="1280" height="720" fill="#000000" fill-opacity="0"/><path d="M176.5 38.8336C176.5 30.9174 182.917 24.5001 190.834 24.5001L287.166 24.5001C295.083 24.5001 301.5 30.9174 301.5 38.8336L301.5 96.1665C301.5 104.083 295.083 110.5 287.166 110.5L190.834 110.5C182.917 110.5 176.5 104.083 176.5 96.1665Z" stroke="#69CA00" stroke-width="1.33333" stroke-miterlimit="8" fill="#69CA00" fill-rule="evenodd"/><g clip-path="url(#clip9)" filter="url(#fx0)" transform="translate(181 37)"><g><path d="M8.094-6.821C8.57533-6.745 9.0155-6.54867 9.4145-6.232 9.8135-5.91533 10.1302-5.52267 10.3645-5.054 10.5988-4.58533 10.716-4.085 10.716-3.553 10.716-2.88167 10.545-2.27683 10.203-1.7385 9.861-1.20017 9.36383-0.775833 8.7115-0.4655 8.05917-0.155167 7.28967 0 6.403 0L1.463 0 1.463-13.243 6.213-13.243C7.11233-13.243 7.87867-13.0942 8.512-12.7965 9.14533-12.4988 9.62033-12.0967 9.937-11.59 10.2537-11.0833 10.412-10.5133 10.412-9.88 10.412-9.09467 10.1998-8.4455 9.7755-7.9325 9.35117-7.4195 8.79067-7.049 8.094-6.821ZM3.192-7.524 6.099-7.524C6.90967-7.524 7.53667-7.714 7.98-8.094 8.42333-8.474 8.645-8.99967 8.645-9.671 8.645-10.3423 8.42333-10.868 7.98-11.248 7.53667-11.628 6.897-11.818 6.061-11.818L3.192-11.818ZM6.251-1.425C7.11233-1.425 7.78367-1.62767 8.265-2.033 8.74633-2.43833 8.987-3.002 8.987-3.724 8.987-4.45867 8.73367-5.03817 8.227-5.4625 7.72033-5.88683 7.04267-6.099 6.194-6.099L3.192-6.099 3.192-1.425ZM14.692-14.06 14.692 0 12.963 0 12.963-14.06ZM26.8637-10.412 26.8637 0 25.1347 0 25.1347-1.539C24.8053-1.007 24.3462-0.592167 23.7572-0.2945 23.1682 0.00316666 22.519 0.152 21.8097 0.152 20.999 0.152 20.2707-0.0158333 19.6247-0.3515 18.9787-0.687167 18.4688-1.19067 18.0952-1.862 17.7215-2.53333 17.5347-3.35033 17.5347-4.313L17.5347-10.412 19.2447-10.412 19.2447-4.541C19.2447-3.515 19.5043-2.7265 20.0237-2.1755 20.543-1.6245 21.2523-1.349 22.1517-1.349 23.0763-1.349 23.8047-1.634 24.3367-2.204 24.8687-2.774 25.1347-3.60367 25.1347-4.693L25.1347-10.412ZM39.1297-5.605C39.1297-5.27567 39.1107-4.92733 39.0727-4.56L30.7507-4.56C30.814-3.534 31.1655-2.73283 31.8052-2.1565 32.4448-1.58017 33.2207-1.292 34.1327-1.292 34.88-1.292 35.5038-1.46617 36.0042-1.8145 36.5045-2.16283 36.856-2.62833 37.0587-3.211L38.9207-3.211C38.642-2.21033 38.0847-1.3965 37.2487-0.7695 36.4127-0.1425 35.374 0.171 34.1327 0.171 33.1447 0.171 32.2612-0.0506667 31.4822-0.494 30.7032-0.937333 30.092-1.5675 29.6487-2.3845 29.2053-3.2015 28.9837-4.14833 28.9837-5.225 28.9837-6.30167 29.199-7.24533 29.6297-8.056 30.0603-8.86667 30.6652-9.4905 31.4442-9.9275 32.2232-10.3645 33.1193-10.583 34.1327-10.583 35.1207-10.583 35.9947-10.3677 36.7547-9.937 37.5147-9.50633 38.1005-8.91417 38.5122-8.1605 38.9238-7.40683 39.1297-6.555 39.1297-5.605ZM37.3437-5.966C37.3437-6.62467 37.198-7.1915 36.9067-7.6665 36.6153-8.1415 36.2195-8.5025 35.7192-8.7495 35.2188-8.9965 34.6647-9.12 34.0567-9.12 33.1827-9.12 32.4385-8.84133 31.8242-8.284 31.2098-7.72667 30.8583-6.954 30.7697-5.966ZM43.2387-8.987 43.2387-2.85C43.2387-2.34333 43.3463-1.9855 43.5617-1.7765 43.777-1.5675 44.1507-1.463 44.6827-1.463L45.9557-1.463 45.9557 0 44.3977 0C43.435 0 42.713-0.221667 42.2317-0.665 41.7503-1.10833 41.5097-1.83667 41.5097-2.85L41.5097-8.987 40.1607-8.987 40.1607-10.412 41.5097-10.412 41.5097-13.034 43.2387-13.034 43.2387-10.412 45.9557-10.412 45.9557-8.987ZM52.504 0.171C51.5287 0.171 50.6452-0.0506667 49.8535-0.494 49.0618-0.937333 48.4412-1.5675 47.9915-2.3845 47.5418-3.2015 47.317-4.14833 47.317-5.225 47.317-6.289 47.5482-7.2295 48.0105-8.0465 48.4728-8.8635 49.103-9.4905 49.901-9.9275 50.699-10.3645 51.592-10.583 52.58-10.583 53.568-10.583 54.461-10.3645 55.259-9.9275 56.057-9.4905 56.6872-8.86667 57.1495-8.056 57.6118-7.24533 57.843-6.30167 57.843-5.225 57.843-4.14833 57.6055-3.2015 57.1305-2.3845 56.6555-1.5675 56.0127-0.937333 55.202-0.494 54.3913-0.0506667 53.492 0.171 52.504 0.171ZM52.504-1.349C53.1247-1.349 53.7073-1.49467 54.252-1.786 54.7967-2.07733 55.2368-2.51433 55.5725-3.097 55.9082-3.67967 56.076-4.389 56.076-5.225 56.076-6.061 55.9113-6.77033 55.582-7.353 55.2527-7.93567 54.822-8.3695 54.29-8.6545 53.758-8.9395 53.1817-9.082 52.561-9.082 51.9277-9.082 51.3482-8.9395 50.8225-8.6545 50.2968-8.3695 49.8757-7.93567 49.559-7.353 49.2423-6.77033 49.084-6.061 49.084-5.225 49.084-4.37633 49.2392-3.66067 49.5495-3.078 49.8598-2.49533 50.2747-2.0615 50.794-1.7765 51.3133-1.4915 51.8833-1.349 52.504-1.349ZM64.504 0.171C63.5287 0.171 62.6452-0.0506667 61.8535-0.494 61.0618-0.937333 60.4412-1.5675 59.9915-2.3845 59.5418-3.2015 59.317-4.14833 59.317-5.225 59.317-6.289 59.5482-7.2295 60.0105-8.0465 60.4728-8.8635 61.103-9.4905 61.901-9.9275 62.699-10.3645 63.592-10.583 64.58-10.583 65.568-10.583 66.461-10.3645 67.259-9.9275 68.057-9.4905 68.6872-8.86667 69.1495-8.056 69.6118-7.24533 69.843-6.30167 69.843-5.225 69.843-4.14833 69.6055-3.2015 69.1305-2.3845 68.6555-1.5675 68.0127-0.937333 67.202-0.494 66.3913-0.0506667 65.492 0.171 64.504 0.171ZM64.504-1.349C65.1247-1.349 65.7073-1.49467 66.252-1.786 66.7967-2.07733 67.2368-2.51433 67.5725-3.097 67.9082-3.67967 68.076-4.389 68.076-5.225 68.076-6.061 67.9113-6.77033 67.582-7.353 67.2527-7.93567 66.822-8.3695 66.29-8.6545 65.758-8.9395 65.1817-9.082 64.561-9.082 63.9277-9.082 63.3482-8.9395 62.8225-8.6545 62.2968-8.3695 61.8757-7.93567 61.559-7.353 61.2423-6.77033 61.084-6.061 61.084-5.225 61.084-4.37633 61.2392-3.66067 61.5495-3.078 61.8598-2.49533 62.2747-2.0615 62.794-1.7765 63.3133-1.4915 63.8833-1.349 64.504-1.349ZM74.072-8.987 74.072-2.85C74.072-2.34333 74.1797-1.9855 74.395-1.7765 74.6103-1.5675 74.984-1.463 75.516-1.463L76.789-1.463 76.789 0 75.231 0C74.2683 0 73.5463-0.221667 73.065-0.665 72.5837-1.10833 72.343-1.83667 72.343-2.85L72.343-8.987 70.994-8.987 70.994-10.412 72.343-10.412 72.343-13.034 74.072-13.034 74.072-10.412 76.789-10.412 76.789-8.987ZM83.9643-10.602C84.7497-10.602 85.459-10.4342 86.0923-10.0985 86.7257-9.76283 87.2228-9.25933 87.5838-8.588 87.9448-7.91667 88.1253-7.09967 88.1253-6.137L88.1253 0 86.4153 0 86.4153-5.89C86.4153-6.92867 86.1557-7.7235 85.6363-8.2745 85.117-8.8255 84.4077-9.101 83.5083-9.101 82.5963-9.101 81.8712-8.816 81.3328-8.246 80.7945-7.676 80.5253-6.84633 80.5253-5.757L80.5253 0 78.7963 0 78.7963-14.06 80.5253-14.06 80.5253-8.93C80.8673-9.462 81.3392-9.87367 81.9408-10.165 82.5425-10.4563 83.217-10.602 83.9643-10.602Z" fill="#FFFFFF" transform="translate(13.9598 26)"/></g></g><text fill="#FFFFFF" font-family="Poppins,Poppins_MSFontService,sans-serif" font-weight="400" font-size="19" transform="translate(193.907 62)">Bluetooth</text><path d="M239.5 110.5 285.5 156.5 262.5 156.5 262.5 589.5 285.5 589.5 239.5 635.5 193.5 589.5 216.5 589.5 216.5 156.5 193.5 156.5Z" stroke="#0EAFE0" stroke-width="1.33333" stroke-miterlimit="8" fill="#0EAFE0" fill-rule="evenodd"/><path d="M255.5 189.25 711 189.25 711 175.5 738.5 203 711 230.5 711 216.75 255.5 216.75Z" stroke="#0EAFE0" stroke-width="1.33333" stroke-miterlimit="8" fill="#0EAFE0" fill-rule="evenodd"/><text font-family="Poppins,Poppins_MSFontService,sans-serif" font-weight="400" font-size="21" transform="matrix(-1.83697e-16 -1 1 -1.83697e-16 245.643 390)">DBUS</text><path d="M264.5 334.5 292.5 306.5 292.5 320.5 509.5 320.5 509.5 306.5 537.5 334.5 509.5 362.5 509.5 348.5 292.5 348.5 292.5 362.5Z" stroke="#0EAFE0" stroke-width="1.33333" stroke-miterlimit="8" fill="#0EAFE0" fill-rule="evenodd"/><text font-family="Poppins,Poppins_MSFontService,sans-serif" font-weight="400" font-size="21" transform="translate(394.57 211)">Bluetooth Playback</text><text font-family="Poppins,Poppins_MSFontService,sans-serif" font-weight="400" font-size="21" transform="translate(331.382 343)">Bluetooth Ctrl</text><path d="M743.5 500.5 275.5 500.5 275.5 507.5 261.5 493.5 275.5 479.5 275.5 486.5 743.5 486.5Z" stroke="#0EAFE0" stroke-width="1.33333" stroke-miterlimit="8" fill="#0EAFE0" fill-rule="evenodd"/><path d="M743.5 56.1673C743.5 38.678 757.678 24.5001 775.167 24.5001L901.833 24.5001C919.322 24.5001 933.5 38.678 933.5 56.1673L933.5 342.833C933.5 360.322 919.322 374.5 901.833 374.5L775.167 374.5C757.678 374.5 743.5 360.322 743.5 342.833Z" stroke="#69CA00" stroke-width="1.33333" stroke-miterlimit="8" fill="#69CA00" fill-rule="evenodd"/><g clip-path="url(#clip10)" filter="url(#fx1)" transform="translate(809 46)"><g><path d="M9.291-2.945 3.515-2.945 2.451 0 0.627 0 5.415-13.167 7.41-13.167 12.179 0 10.355 0ZM8.797-4.351 6.403-11.039 4.009-4.351ZM21.449-13.243 21.449-11.837 15.692-11.837 15.692-7.372 20.366-7.372 20.366-5.966 15.692-5.966 15.692 0 13.963 0 13.963-13.243ZM25.0253-11.837 25.0253-7.41 29.8513-7.41 29.8513-5.985 25.0253-5.985 25.0253-1.425 30.4213-1.425 30.4213 0 23.2963 0 23.2963-13.262 30.4213-13.262 30.4213-11.837Z" fill="#FFFFFF" transform="translate(14.3014 25)"/></g></g><text fill="#FFFFFF" font-family="Poppins,Poppins_MSFontService,sans-serif" font-weight="400" font-size="19" transform="translate(822.248 70)">AFE</text><g clip-path="url(#clip11)" filter="url(#fx2)" transform="translate(755 69)"><g><path d="M3.192-1.406 7.828-1.406 7.828 0 1.463 0 1.463-13.243 3.192-13.243ZM10.356-12.103C10.0267-12.103 9.748-12.217 9.52-12.445 9.292-12.673 9.178-12.9517 9.178-13.281 9.178-13.6103 9.292-13.889 9.52-14.117 9.748-14.345 10.0267-14.459 10.356-14.459 10.6727-14.459 10.9418-14.345 11.1635-14.117 11.3852-13.889 11.496-13.6103 11.496-13.281 11.496-12.9517 11.3852-12.673 11.1635-12.445 10.9418-12.217 10.6727-12.103 10.356-12.103ZM11.192-10.412 11.192 0 9.463 0 9.463-10.412ZM15.8587-8.474C16.2133-9.09467 16.7327-9.60133 17.4167-9.994 18.1007-10.3867 18.8797-10.583 19.7537-10.583 20.691-10.583 21.5333-10.3613 22.2807-9.918 23.028-9.47467 23.617-8.85083 24.0477-8.0465 24.4783-7.24217 24.6937-6.308 24.6937-5.244 24.6937-4.19267 24.4783-3.25533 24.0477-2.432 23.617-1.60867 23.0248-0.969 22.2712-0.513 21.5175-0.057 20.6783 0.171 19.7537 0.171 18.8543 0.171 18.0658-0.0253334 17.3882-0.418 16.7105-0.810667 16.2007-1.311 15.8587-1.919L15.8587 0 14.1297 0 14.1297-14.06 15.8587-14.06ZM22.9267-5.244C22.9267-6.02933 22.7683-6.71333 22.4517-7.296 22.135-7.87867 21.7075-8.322 21.1692-8.626 20.6308-8.93 20.0387-9.082 19.3927-9.082 18.7593-9.082 18.1735-8.92683 17.6352-8.6165 17.0968-8.30617 16.6662-7.8565 16.3432-7.2675 16.0202-6.6785 15.8587-5.99767 15.8587-5.225 15.8587-4.43967 16.0202-3.7525 16.3432-3.1635 16.6662-2.5745 17.0968-2.12483 17.6352-1.8145 18.1735-1.50417 18.7593-1.349 19.3927-1.349 20.0387-1.349 20.6308-1.50417 21.1692-1.8145 21.7075-2.12483 22.135-2.5745 22.4517-3.1635 22.7683-3.7525 22.9267-4.446 22.9267-5.244ZM37.7403-13.243 32.7433 0 30.7483 0 25.7513-13.243 27.5943-13.243 31.7553-1.824 35.9163-13.243ZM44.004 0.171C43.0287 0.171 42.1452-0.0506667 41.3535-0.494 40.5618-0.937333 39.9412-1.5675 39.4915-2.3845 39.0418-3.2015 38.817-4.14833 38.817-5.225 38.817-6.289 39.0482-7.2295 39.5105-8.0465 39.9728-8.8635 40.603-9.4905 41.401-9.9275 42.199-10.3645 43.092-10.583 44.08-10.583 45.068-10.583 45.961-10.3645 46.759-9.9275 47.557-9.4905 48.1872-8.86667 48.6495-8.056 49.1118-7.24533 49.343-6.30167 49.343-5.225 49.343-4.14833 49.1055-3.2015 48.6305-2.3845 48.1555-1.5675 47.5127-0.937333 46.702-0.494 45.8913-0.0506667 44.992 0.171 44.004 0.171ZM44.004-1.349C44.6247-1.349 45.2073-1.49467 45.752-1.786 46.2967-2.07733 46.7368-2.51433 47.0725-3.097 47.4082-3.67967 47.576-4.389 47.576-5.225 47.576-6.061 47.4113-6.77033 47.082-7.353 46.7527-7.93567 46.322-8.3695 45.79-8.6545 45.258-8.9395 44.6817-9.082 44.061-9.082 43.4277-9.082 42.8482-8.9395 42.3225-8.6545 41.7968-8.3695 41.3757-7.93567 41.059-7.353 40.7423-6.77033 40.584-6.061 40.584-5.225 40.584-4.37633 40.7392-3.66067 41.0495-3.078 41.3598-2.49533 41.7747-2.0615 42.294-1.7765 42.8133-1.4915 43.3833-1.349 44.004-1.349ZM52.356-12.103C52.0267-12.103 51.748-12.217 51.52-12.445 51.292-12.673 51.178-12.9517 51.178-13.281 51.178-13.6103 51.292-13.889 51.52-14.117 51.748-14.345 52.0267-14.459 52.356-14.459 52.6727-14.459 52.9418-14.345 53.1635-14.117 53.3852-13.889 53.496-13.6103 53.496-13.281 53.496-12.9517 53.3852-12.673 53.1635-12.445 52.9418-12.217 52.6727-12.103 52.356-12.103ZM53.192-10.412 53.192 0 51.463 0 51.463-10.412ZM55.4837-5.225C55.4837-6.30167 55.699-7.24217 56.1297-8.0465 56.5603-8.85083 57.1588-9.47467 57.9252-9.918 58.6915-10.3613 59.5687-10.583 60.5567-10.583 61.836-10.583 62.8905-10.2727 63.7202-9.652 64.5498-9.03133 65.0977-8.17 65.3637-7.068L63.5017-7.068C63.3243-7.70133 62.9792-8.20167 62.4662-8.569 61.9532-8.93633 61.3167-9.12 60.5567-9.12 59.5687-9.12 58.7707-8.78117 58.1627-8.1035 57.5547-7.42583 57.2507-6.46633 57.2507-5.225 57.2507-3.971 57.5547-3.002 58.1627-2.318 58.7707-1.634 59.5687-1.292 60.5567-1.292 61.3167-1.292 61.95-1.46933 62.4567-1.824 62.9633-2.17867 63.3117-2.68533 63.5017-3.344L65.3637-3.344C65.085-2.28 64.5277-1.42817 63.6917-0.7885 62.8557-0.148833 61.8107 0.171 60.5567 0.171 59.5687 0.171 58.6915-0.0506667 57.9252-0.494 57.1588-0.937333 56.5603-1.56433 56.1297-2.375 55.699-3.18567 55.4837-4.13567 55.4837-5.225ZM76.963-5.605C76.963-5.27567 76.944-4.92733 76.906-4.56L68.584-4.56C68.6473-3.534 68.9988-2.73283 69.6385-2.1565 70.2782-1.58017 71.054-1.292 71.966-1.292 72.7133-1.292 73.3372-1.46617 73.8375-1.8145 74.3378-2.16283 74.6893-2.62833 74.892-3.211L76.754-3.211C76.4753-2.21033 75.918-1.3965 75.082-0.7695 74.246-0.1425 73.2073 0.171 71.966 0.171 70.978 0.171 70.0945-0.0506667 69.3155-0.494 68.5365-0.937333 67.9253-1.5675 67.482-2.3845 67.0387-3.2015 66.817-4.14833 66.817-5.225 66.817-6.30167 67.0323-7.24533 67.463-8.056 67.8937-8.86667 68.4985-9.4905 69.2775-9.9275 70.0565-10.3645 70.9527-10.583 71.966-10.583 72.954-10.583 73.828-10.3677 74.588-9.937 75.348-9.50633 75.9338-8.91417 76.3455-8.1605 76.7572-7.40683 76.963-6.555 76.963-5.605ZM75.177-5.966C75.177-6.62467 75.0313-7.1915 74.74-7.6665 74.4487-8.1415 74.0528-8.5025 73.5525-8.7495 73.0522-8.9965 72.498-9.12 71.89-9.12 71.016-9.12 70.2718-8.84133 69.6575-8.284 69.0432-7.72667 68.6917-6.954 68.603-5.966ZM83.162 0.133C82.288 0.133 81.5058-0.0221667 80.8155-0.3325 80.1252-0.642833 79.5837-1.0735 79.191-1.6245 78.7983-2.1755 78.5957-2.812 78.583-3.534L80.426-3.534C80.4893-2.91333 80.7458-2.39083 81.1955-1.9665 81.6452-1.54217 82.3007-1.33 83.162-1.33 83.9853-1.33 84.6345-1.53583 85.1095-1.9475 85.5845-2.35917 85.822-2.888 85.822-3.534 85.822-4.04067 85.6827-4.45233 85.404-4.769 85.1253-5.08567 84.777-5.32633 84.359-5.491 83.941-5.65567 83.3773-5.833 82.668-6.023 81.794-6.251 81.0942-6.479 80.5685-6.707 80.0428-6.935 79.5932-7.29283 79.2195-7.7805 78.8458-8.26817 78.659-8.92367 78.659-9.747 78.659-10.469 78.8427-11.1087 79.21-11.666 79.5773-12.2233 80.0935-12.654 80.7585-12.958 81.4235-13.262 82.1867-13.414 83.048-13.414 84.2893-13.414 85.3058-13.1037 86.0975-12.483 86.8892-11.8623 87.3357-11.039 87.437-10.013L85.537-10.013C85.4737-10.5197 85.2077-10.9662 84.739-11.3525 84.2703-11.7388 83.6497-11.932 82.877-11.932 82.155-11.932 81.566-11.7452 81.11-11.3715 80.654-10.9978 80.426-10.4753 80.426-9.804 80.426-9.32267 80.5622-8.93 80.8345-8.626 81.1068-8.322 81.4425-8.09083 81.8415-7.9325 82.2405-7.77417 82.801-7.59367 83.523-7.391 84.397-7.15033 85.1-6.91283 85.632-6.6785 86.164-6.44417 86.62-6.08317 87-5.5955 87.38-5.10783 87.57-4.446 87.57-3.61 87.57-2.964 87.399-2.356 87.057-1.786 86.715-1.216 86.2083-0.753667 85.537-0.399 84.8657-0.0443333 84.074 0.133 83.162 0.133ZM99.463-5.605C99.463-5.27567 99.444-4.92733 99.406-4.56L91.084-4.56C91.1473-3.534 91.4988-2.73283 92.1385-2.1565 92.7782-1.58017 93.554-1.292 94.466-1.292 95.2133-1.292 95.8372-1.46617 96.3375-1.8145 96.8378-2.16283 97.1893-2.62833 97.392-3.211L99.254-3.211C98.9753-2.21033 98.418-1.3965 97.582-0.7695 96.746-0.1425 95.7073 0.171 94.466 0.171 93.478 0.171 92.5945-0.0506667 91.8155-0.494 91.0365-0.937333 90.4253-1.5675 89.982-2.3845 89.5387-3.2015 89.317-4.14833 89.317-5.225 89.317-6.30167 89.5323-7.24533 89.963-8.056 90.3937-8.86667 90.9985-9.4905 91.7775-9.9275 92.5565-10.3645 93.4527-10.583 94.466-10.583 95.454-10.583 96.328-10.3677 97.088-9.937 97.848-9.50633 98.4338-8.91417 98.8455-8.1605 99.2572-7.40683 99.463-6.555 99.463-5.605ZM97.677-5.966C97.677-6.62467 97.5313-7.1915 97.24-7.6665 96.9487-8.1415 96.5528-8.5025 96.0525-8.7495 95.5522-8.9965 94.998-9.12 94.39-9.12 93.516-9.12 92.7718-8.84133 92.1575-8.284 91.5432-7.72667 91.1917-6.954 91.103-5.966ZM110.963-5.605C110.963-5.27567 110.944-4.92733 110.906-4.56L102.584-4.56C102.647-3.534 102.999-2.73283 103.638-2.1565 104.278-1.58017 105.054-1.292 105.966-1.292 106.713-1.292 107.337-1.46617 107.838-1.8145 108.338-2.16283 108.689-2.62833 108.892-3.211L110.754-3.211C110.475-2.21033 109.918-1.3965 109.082-0.7695 108.246-0.1425 107.207 0.171 105.966 0.171 104.978 0.171 104.094-0.0506667 103.315-0.494 102.536-0.937333 101.925-1.5675 101.482-2.3845 101.039-3.2015 100.817-4.14833 100.817-5.225 100.817-6.30167 101.032-7.24533 101.463-8.056 101.894-8.86667 102.498-9.4905 103.277-9.9275 104.056-10.3645 104.953-10.583 105.966-10.583 106.954-10.583 107.828-10.3677 108.588-9.937 109.348-9.50633 109.934-8.91417 110.345-8.1605 110.757-7.40683 110.963-6.555 110.963-5.605ZM109.177-5.966C109.177-6.62467 109.031-7.1915 108.74-7.6665 108.449-8.1415 108.053-8.5025 107.552-8.7495 107.052-8.9965 106.498-9.12 105.89-9.12 105.016-9.12 104.272-8.84133 103.658-8.284 103.043-7.72667 102.692-6.954 102.603-5.966ZM118.777 0 114.692-4.598 114.692 0 112.963 0 112.963-14.06 114.692-14.06 114.692-5.795 118.701-10.412 121.114-10.412 116.212-5.225 121.133 0ZM132.13-5.605C132.13-5.27567 132.111-4.92733 132.073-4.56L123.751-4.56C123.814-3.534 124.165-2.73283 124.805-2.1565 125.445-1.58017 126.221-1.292 127.133-1.292 127.88-1.292 128.504-1.46617 129.004-1.8145 129.504-2.16283 129.856-2.62833 130.059-3.211L131.921-3.211C131.642-2.21033 131.085-1.3965 130.249-0.7695 129.413-0.1425 128.374 0.171 127.133 0.171 126.145 0.171 125.261-0.0506667 124.482-0.494 123.703-0.937333 123.092-1.5675 122.649-2.3845 122.205-3.2015 121.984-4.14833 121.984-5.225 121.984-6.30167 122.199-7.24533 122.63-8.056 123.06-8.86667 123.665-9.4905 124.444-9.9275 125.223-10.3645 126.119-10.583 127.133-10.583 128.121-10.583 128.995-10.3677 129.755-9.937 130.515-9.50633 131.1-8.91417 131.512-8.1605 131.924-7.40683 132.13-6.555 132.13-5.605ZM130.344-5.966C130.344-6.62467 130.198-7.1915 129.907-7.6665 129.615-8.1415 129.219-8.5025 128.719-8.7495 128.219-8.9965 127.665-9.12 127.057-9.12 126.183-9.12 125.438-8.84133 124.824-8.284 124.21-7.72667 123.858-6.954 123.77-5.966ZM135.859-8.721C136.163-9.31633 136.596-9.77867 137.16-10.108 137.724-10.4373 138.411-10.602 139.222-10.602L139.222-8.816 138.766-8.816C136.828-8.816 135.859-7.76467 135.859-5.662L135.859 0 134.13 0 134.13-10.412 135.859-10.412Z" fill="#FFFFFF" transform="translate(14.1348 25)"/></g></g><text fill="#FFFFFF" font-family="Poppins,Poppins_MSFontService,sans-serif" font-weight="400" font-size="19" transform="translate(768.082 93)">LibVoiceSeeker</text><path d="M537.5 294.5C537.5 285.664 544.664 278.5 553.5 278.5L683.5 278.5C692.336 278.5 699.5 285.664 699.5 294.5L699.5 358.5C699.5 367.336 692.336 374.5 683.5 374.5L553.5 374.5C544.664 374.5 537.5 367.336 537.5 358.5Z" stroke="#69CA00" stroke-width="1.33333" stroke-miterlimit="8" fill="#69CA00" fill-rule="evenodd"/><g clip-path="url(#clip12)" filter="url(#fx3)" transform="translate(544 278)"><g><path d="M5.056 0.144C4.23467 0.144 3.49067-0.0426667 2.824-0.416 2.15733-0.789333 1.63467-1.32 1.256-2.008 0.877333-2.696 0.688-3.49333 0.688-4.4 0.688-5.296 0.882667-6.088 1.272-6.776 1.66133-7.464 2.192-7.992 2.864-8.36 3.536-8.728 4.288-8.912 5.12-8.912 5.952-8.912 6.704-8.728 7.376-8.36 8.048-7.992 8.57867-7.46667 8.968-6.784 9.35733-6.10133 9.552-5.30667 9.552-4.4 9.552-3.49333 9.352-2.696 8.952-2.008 8.552-1.32 8.01067-0.789333 7.328-0.416 6.64533-0.0426667 5.888 0.144 5.056 0.144ZM5.056-1.136C5.57867-1.136 6.06933-1.25867 6.528-1.504 6.98667-1.74933 7.35733-2.11733 7.64-2.608 7.92267-3.09867 8.064-3.696 8.064-4.4 8.064-5.104 7.92533-5.70133 7.648-6.192 7.37067-6.68267 7.008-7.048 6.56-7.288 6.112-7.528 5.62667-7.648 5.104-7.648 4.57067-7.648 4.08267-7.528 3.64-7.288 3.19733-7.048 2.84267-6.68267 2.576-6.192 2.30933-5.70133 2.176-5.104 2.176-4.4 2.176-3.68533 2.30667-3.08267 2.568-2.592 2.82933-2.10133 3.17867-1.736 3.616-1.496 4.05333-1.256 4.53333-1.136 5.056-1.136ZM12.8547-7.344C13.1107-7.84533 13.476-8.23467 13.9507-8.512 14.4253-8.78933 15.004-8.928 15.6867-8.928L15.6867-7.424 15.3027-7.424C13.6707-7.424 12.8547-6.53867 12.8547-4.768L12.8547 0 11.3987 0 11.3987-8.768 12.8547-8.768ZM21.0147-8.912C21.772-8.912 22.436-8.74667 23.0067-8.416 23.5773-8.08533 24.0013-7.66933 24.2787-7.168L24.2787-8.768 25.7507-8.768 25.7507 0.192C25.7507 0.992 25.58 1.704 25.2387 2.328 24.8973 2.952 24.4093 3.44 23.7747 3.792 23.14 4.144 22.4013 4.32 21.5587 4.32 20.4067 4.32 19.4467 4.048 18.6787 3.504 17.9107 2.96 17.4573 2.21867 17.3187 1.28L18.7587 1.28C18.9187 1.81333 19.2493 2.24267 19.7507 2.568 20.252 2.89333 20.8547 3.056 21.5587 3.056 22.3587 3.056 23.012 2.80533 23.5187 2.304 24.0253 1.80267 24.2787 1.09867 24.2787 0.192L24.2787-1.648C23.9907-1.136 23.564-0.709333 22.9987-0.368 22.4333-0.0266667 21.772 0.144 21.0147 0.144 20.236 0.144 19.5293-0.048 18.8947-0.432 18.26-0.816 17.7613-1.35467 17.3987-2.048 17.036-2.74133 16.8547-3.53067 16.8547-4.416 16.8547-5.312 17.036-6.09867 17.3987-6.776 17.7613-7.45333 18.26-7.97867 18.8947-8.352 19.5293-8.72533 20.236-8.912 21.0147-8.912ZM24.2787-4.4C24.2787-5.06133 24.1453-5.63733 23.8787-6.128 23.612-6.61867 23.252-6.99467 22.7987-7.256 22.3453-7.51733 21.8467-7.648 21.3027-7.648 20.7587-7.648 20.2627-7.52 19.8147-7.264 19.3667-7.008 19.0093-6.63467 18.7427-6.144 18.476-5.65333 18.3427-5.07733 18.3427-4.416 18.3427-3.744 18.476-3.16 18.7427-2.664 19.0093-2.168 19.3667-1.78933 19.8147-1.528 20.2627-1.26667 20.7587-1.136 21.3027-1.136 21.8467-1.136 22.3453-1.26667 22.7987-1.528 23.252-1.78933 23.612-2.168 23.8787-2.664 24.1453-3.16 24.2787-3.73867 24.2787-4.4ZM28.696 0.096C28.4187 0.096 28.184-7.45058e-09 27.992-0.192 27.8-0.384 27.704-0.618667 27.704-0.896 27.704-1.17333 27.8-1.408 27.992-1.6 28.184-1.792 28.4187-1.888 28.696-1.888 28.9627-1.888 29.1893-1.792 29.376-1.6 29.5627-1.408 29.656-1.17333 29.656-0.896 29.656-0.618667 29.5627-0.384 29.376-0.192 29.1893-7.45058e-09 28.9627 0.096 28.696 0.096ZM33.0213-7.136C33.32-7.65867 33.7573-8.08533 34.3333-8.416 34.9093-8.74667 35.5653-8.912 36.3013-8.912 37.0907-8.912 37.8-8.72533 38.4293-8.352 39.0587-7.97867 39.5547-7.45333 39.9173-6.776 40.28-6.09867 40.4613-5.312 40.4613-4.416 40.4613-3.53067 40.28-2.74133 39.9173-2.048 39.5547-1.35467 39.056-0.816 38.4213-0.432 37.7867-0.048 37.08 0.144 36.3013 0.144 35.544 0.144 34.88-0.0213333 34.3093-0.352 33.7387-0.682667 33.3093-1.104 33.0213-1.616L33.0213 0 31.5653 0 31.5653-11.84 33.0213-11.84ZM38.9733-4.416C38.9733-5.07733 38.84-5.65333 38.5733-6.144 38.3067-6.63467 37.9467-7.008 37.4933-7.264 37.04-7.52 36.5413-7.648 35.9973-7.648 35.464-7.648 34.9707-7.51733 34.5173-7.256 34.064-6.99467 33.7013-6.616 33.4293-6.12 33.1573-5.624 33.0213-5.05067 33.0213-4.4 33.0213-3.73867 33.1573-3.16 33.4293-2.664 33.7013-2.168 34.064-1.78933 34.5173-1.528 34.9707-1.26667 35.464-1.136 35.9973-1.136 36.5413-1.136 37.04-1.26667 37.4933-1.528 37.9467-1.78933 38.3067-2.168 38.5733-2.664 38.84-3.16 38.9733-3.744 38.9733-4.416ZM43.8547-11.84 43.8547 0 42.3987 0 42.3987-11.84ZM54.1747-8.768 54.1747 0 52.7187 0 52.7187-1.296C52.4413-0.848 52.0547-0.498667 51.5587-0.248 51.0627 0.00266666 50.516 0.128 49.9187 0.128 49.236 0.128 48.6227-0.0133333 48.0787-0.296 47.5347-0.578667 47.1053-1.00267 46.7907-1.568 46.476-2.13333 46.3187-2.82133 46.3187-3.632L46.3187-8.768 47.7587-8.768 47.7587-3.824C47.7587-2.96 47.9773-2.296 48.4147-1.832 48.852-1.368 49.4493-1.136 50.2067-1.136 50.9853-1.136 51.5987-1.376 52.0467-1.856 52.4947-2.336 52.7187-3.03467 52.7187-3.952L52.7187-8.768ZM64.5653-4.72C64.5653-4.44267 64.5493-4.14933 64.5173-3.84L57.5093-3.84C57.5627-2.976 57.8587-2.30133 58.3973-1.816 58.936-1.33067 59.5893-1.088 60.3573-1.088 60.9867-1.088 61.512-1.23467 61.9333-1.528 62.3547-1.82133 62.6507-2.21333 62.8213-2.704L64.3893-2.704C64.1547-1.86133 63.6853-1.176 62.9813-0.648 62.2773-0.12 61.4027 0.144 60.3573 0.144 59.5253 0.144 58.7813-0.0426667 58.1253-0.416 57.4693-0.789333 56.9547-1.32 56.5813-2.008 56.208-2.696 56.0213-3.49333 56.0213-4.4 56.0213-5.30667 56.2027-6.10133 56.5653-6.784 56.928-7.46667 57.4373-7.992 58.0933-8.36 58.7493-8.728 59.504-8.912 60.3573-8.912 61.1893-8.912 61.9253-8.73067 62.5653-8.368 63.2053-8.00533 63.6987-7.50667 64.0453-6.872 64.392-6.23733 64.5653-5.52 64.5653-4.72ZM63.0613-5.024C63.0613-5.57867 62.9387-6.056 62.6933-6.456 62.448-6.856 62.1147-7.16 61.6933-7.368 61.272-7.576 60.8053-7.68 60.2933-7.68 59.5573-7.68 58.9307-7.44533 58.4133-6.976 57.896-6.50667 57.6-5.856 57.5253-5.024ZM67.6533-1.2 71.9573-1.2 71.9573 0 65.9893 0 65.9893-1.2 70.2453-7.584 66.0213-7.584 66.0213-8.768 71.9253-8.768 71.9253-7.584ZM74.3627 0.096C74.0853 0.096 73.8507-7.45058e-09 73.6587-0.192 73.4667-0.384 73.3707-0.618667 73.3707-0.896 73.3707-1.17333 73.4667-1.408 73.6587-1.6 73.8507-1.792 74.0853-1.888 74.3627-1.888 74.6293-1.888 74.856-1.792 75.0427-1.6 75.2293-1.408 75.3227-1.17333 75.3227-0.896 75.3227-0.618667 75.2293-0.384 75.0427-0.192 74.856-7.45058e-09 74.6293 0.096 74.3627 0.096ZM88.544-11.072 88.544 0 87.088 0 87.088-8.256 83.408 0 82.384 0 78.688-8.272 78.688 0 77.232 0 77.232-11.072 78.8-11.072 82.896-1.92 86.992-11.072ZM99.0654-4.72C99.0654-4.44267 99.0493-4.14933 99.0173-3.84L92.0094-3.84C92.0627-2.976 92.3587-2.30133 92.8974-1.816 93.436-1.33067 94.0893-1.088 94.8574-1.088 95.4867-1.088 96.012-1.23467 96.4333-1.528 96.8547-1.82133 97.1507-2.21333 97.3214-2.704L98.8894-2.704C98.6547-1.86133 98.1853-1.176 97.4814-0.648 96.7773-0.12 95.9027 0.144 94.8574 0.144 94.0253 0.144 93.2813-0.0426667 92.6254-0.416 91.9693-0.789333 91.4547-1.32 91.0814-2.008 90.708-2.696 90.5213-3.49333 90.5214-4.4 90.5213-5.30667 90.7027-6.10133 91.0654-6.784 91.428-7.46667 91.9373-7.992 92.5934-8.36 93.2494-8.728 94.004-8.912 94.8574-8.912 95.6893-8.912 96.4253-8.73067 97.0654-8.368 97.7053-8.00533 98.1987-7.50667 98.5453-6.872 98.892-6.23733 99.0654-5.52 99.0654-4.72ZM97.5613-5.024C97.5613-5.57867 97.4387-6.056 97.1934-6.456 96.948-6.856 96.6147-7.16 96.1934-7.368 95.772-7.576 95.3053-7.68 94.7934-7.68 94.0574-7.68 93.4307-7.44533 92.9134-6.976 92.396-6.50667 92.1-5.856 92.0254-5.024ZM100.521-4.416C100.521-5.312 100.703-6.09867 101.065-6.776 101.428-7.45333 101.927-7.97867 102.561-8.352 103.196-8.72533 103.908-8.912 104.697-8.912 105.38-8.912 106.015-8.75467 106.601-8.44 107.188-8.12533 107.636-7.712 107.945-7.2L107.945-11.84 109.417-11.84 109.417 0 107.945 0 107.945-1.648C107.657-1.12533 107.231-0.696 106.665-0.36 106.1-0.024 105.439 0.144 104.681 0.144 103.903 0.144 103.196-0.048 102.561-0.432 101.927-0.816 101.428-1.35467 101.065-2.048 100.703-2.74133 100.521-3.53067 100.521-4.416ZM107.945-4.4C107.945-5.06133 107.812-5.63733 107.545-6.128 107.279-6.61867 106.919-6.99467 106.465-7.256 106.012-7.51733 105.513-7.648 104.969-7.648 104.425-7.648 103.929-7.52 103.481-7.264 103.033-7.008 102.676-6.63467 102.409-6.144 102.143-5.65333 102.009-5.07733 102.009-4.416 102.009-3.744 102.143-3.16 102.409-2.664 102.676-2.168 103.033-1.78933 103.481-1.528 103.929-1.26667 104.425-1.136 104.969-1.136 105.513-1.136 106.012-1.26667 106.465-1.528 106.919-1.78933 107.279-2.168 107.545-2.664 107.812-3.16 107.945-3.73867 107.945-4.4ZM112.651-10.192C112.373-10.192 112.139-10.288 111.947-10.48 111.755-10.672 111.659-10.9067 111.659-11.184 111.659-11.4613 111.755-11.696 111.947-11.888 112.139-12.08 112.373-12.176 112.651-12.176 112.917-12.176 113.144-12.08 113.331-11.888 113.517-11.696 113.611-11.4613 113.611-11.184 113.611-10.9067 113.517-10.672 113.331-10.48 113.144-10.288 112.917-10.192 112.651-10.192ZM113.355-8.768 113.355 0 111.899 0 111.899-8.768ZM115.355-4.416C115.355-5.312 115.536-6.09867 115.899-6.776 116.261-7.45333 116.76-7.97867 117.395-8.352 118.029-8.72533 118.736-8.912 119.515-8.912 120.283-8.912 120.949-8.74667 121.515-8.416 122.08-8.08533 122.501-7.66933 122.779-7.168L122.779-8.768 124.251-8.768 124.251 0 122.779 0 122.779-1.632C122.491-1.12 122.061-0.696 121.491-0.36 120.92-0.024 120.256 0.144 119.499 0.144 118.72 0.144 118.016-0.048 117.387-0.432 116.757-0.816 116.261-1.35467 115.899-2.048 115.536-2.74133 115.355-3.53067 115.355-4.416ZM122.779-4.4C122.779-5.06133 122.645-5.63733 122.379-6.128 122.112-6.61867 121.752-6.99467 121.299-7.256 120.845-7.51733 120.347-7.648 119.803-7.648 119.259-7.648 118.763-7.52 118.315-7.264 117.867-7.008 117.509-6.63467 117.243-6.144 116.976-5.65333 116.843-5.07733 116.843-4.416 116.843-3.744 116.976-3.16 117.243-2.664 117.509-2.168 117.867-1.78933 118.315-1.528 118.763-1.26667 119.259-1.136 119.803-1.136 120.347-1.136 120.845-1.26667 121.299-1.528 121.752-1.78933 122.112-2.168 122.379-2.664 122.645-3.16 122.779-3.73867 122.779-4.4Z" fill="#FFFFFF" transform="translate(12.4799 22)"/></g></g><text fill="#FFFFFF" font-family="Poppins,Poppins_MSFontService,sans-serif" font-weight="400" font-size="16" transform="translate(555.496 299)">org.bluez.Media</text><g clip-path="url(#clip13)" filter="url(#fx4)" transform="translate(580 297)"><g><path d="M8.688-7.888C8.688-6.96 8.37067-6.18933 7.736-5.576 7.10133-4.96267 6.13333-4.656 4.832-4.656L2.688-4.656 2.688 0 1.232 0 1.232-11.152 4.832-11.152C6.09067-11.152 7.048-10.848 7.704-10.24 8.36-9.632 8.688-8.848 8.688-7.888ZM4.832-5.856C5.64267-5.856 6.24-6.032 6.624-6.384 7.008-6.736 7.2-7.23733 7.2-7.888 7.2-9.264 6.41067-9.952 4.832-9.952L2.688-9.952 2.688-5.856ZM12.0213-11.84 12.0213 0 10.5653 0 10.5653-11.84ZM14.0213-4.416C14.0213-5.312 14.2027-6.09867 14.5653-6.776 14.928-7.45333 15.4267-7.97867 16.0613-8.352 16.696-8.72533 17.4027-8.912 18.1813-8.912 18.9493-8.912 19.616-8.74667 20.1813-8.416 20.7467-8.08533 21.168-7.66933 21.4453-7.168L21.4453-8.768 22.9173-8.768 22.9173 0 21.4453 0 21.4453-1.632C21.1573-1.12 20.728-0.696 20.1573-0.36 19.5867-0.024 18.9227 0.144 18.1653 0.144 17.3867 0.144 16.6827-0.048 16.0533-0.432 15.424-0.816 14.928-1.35467 14.5653-2.048 14.2027-2.74133 14.0213-3.53067 14.0213-4.416ZM21.4453-4.4C21.4453-5.06133 21.312-5.63733 21.0453-6.128 20.7787-6.61867 20.4187-6.99467 19.9653-7.256 19.512-7.51733 19.0133-7.648 18.4693-7.648 17.9253-7.648 17.4293-7.52 16.9813-7.264 16.5333-7.008 16.176-6.63467 15.9093-6.144 15.6427-5.65333 15.5093-5.07733 15.5093-4.416 15.5093-3.744 15.6427-3.16 15.9093-2.664 16.176-2.168 16.5333-1.78933 16.9813-1.528 17.4293-1.26667 17.9253-1.136 18.4693-1.136 19.0133-1.136 19.512-1.26667 19.9653-1.528 20.4187-1.78933 20.7787-2.168 21.0453-2.664 21.312-3.16 21.4453-3.73867 21.4453-4.4ZM32.9507-8.768 27.6707 4.128 26.1667 4.128 27.8947-0.096 24.3587-8.768 25.9747-8.768 28.7267-1.664 31.4467-8.768ZM42.3987-4.72C42.3987-4.44267 42.3827-4.14933 42.3507-3.84L35.3427-3.84C35.396-2.976 35.692-2.30133 36.2307-1.816 36.7693-1.33067 37.4227-1.088 38.1907-1.088 38.82-1.088 39.3453-1.23467 39.7667-1.528 40.188-1.82133 40.484-2.21333 40.6547-2.704L42.2227-2.704C41.988-1.86133 41.5187-1.176 40.8147-0.648 40.1107-0.12 39.236 0.144 38.1907 0.144 37.3587 0.144 36.6147-0.0426667 35.9587-0.416 35.3027-0.789333 34.788-1.32 34.4147-2.008 34.0413-2.696 33.8547-3.49333 33.8547-4.4 33.8547-5.30667 34.036-6.10133 34.3987-6.784 34.7613-7.46667 35.2707-7.992 35.9267-8.36 36.5827-8.728 37.3373-8.912 38.1907-8.912 39.0227-8.912 39.7587-8.73067 40.3987-8.368 41.0387-8.00533 41.532-7.50667 41.8787-6.872 42.2253-6.23733 42.3987-5.52 42.3987-4.72ZM40.8947-5.024C40.8947-5.57867 40.772-6.056 40.5267-6.456 40.2813-6.856 39.948-7.16 39.5267-7.368 39.1053-7.576 38.6387-7.68 38.1267-7.68 37.3907-7.68 36.764-7.44533 36.2467-6.976 35.7293-6.50667 35.4333-5.856 35.3587-5.024ZM45.8547-7.344C46.1107-7.84533 46.476-8.23467 46.9507-8.512 47.4253-8.78933 48.004-8.928 48.6867-8.928L48.6867-7.424 48.3027-7.424C46.6707-7.424 45.8547-6.53867 45.8547-4.768L45.8547 0 44.3987 0 44.3987-8.768 45.8547-8.768ZM49.7747-10.24 49.7747-11.568 52.7827-11.568 52.7827 0 51.3107 0 51.3107-10.24Z" fill="#FFFFFF" transform="translate(12.0599 22)"/></g></g><text fill="#FFFFFF" font-family="Poppins,Poppins_MSFontService,sans-serif" font-weight="400" font-size="16" transform="translate(591.076 318)">Player1</text><g clip-path="url(#clip14)" filter="url(#fx5)" transform="translate(574 338)"><g><path d="M12.084 2.508 9.443-0.133C8.797 0.0443333 8.13833 0.133 7.467 0.133 6.23833 0.133 5.11733-0.155167 4.104-0.7315 3.09067-1.30783 2.2895-2.11217 1.7005-3.1445 1.1115-4.17683 0.817-5.339 0.817-6.631 0.817-7.923 1.1115-9.08517 1.7005-10.1175 2.2895-11.1498 3.09067-11.9542 4.104-12.5305 5.11733-13.1068 6.23833-13.395 7.467-13.395 8.70833-13.395 9.83567-13.1068 10.849-12.5305 11.8623-11.9542 12.6603-11.153 13.243-10.127 13.8257-9.101 14.117-7.93567 14.117-6.631 14.117-5.36433 13.8383-4.22433 13.281-3.211 12.7237-2.19767 11.9573-1.39967 10.982-0.817L14.326 2.508ZM2.584-6.631C2.584-5.57967 2.79617-4.655 3.2205-3.857 3.64483-3.059 4.2275-2.44467 4.9685-2.014 5.7095-1.58333 6.54233-1.368 7.467-1.368 8.39167-1.368 9.2245-1.58333 9.9655-2.014 10.7065-2.44467 11.2892-3.059 11.7135-3.857 12.1378-4.655 12.35-5.57967 12.35-6.631 12.35-7.695 12.1378-8.62283 11.7135-9.4145 11.2892-10.2062 10.7097-10.8173 9.975-11.248 9.24033-11.6787 8.40433-11.894 7.467-11.894 6.52967-11.894 5.69367-11.6787 4.959-11.248 4.22433-10.8173 3.64483-10.2062 3.2205-9.4145 2.79617-8.62283 2.584-7.695 2.584-6.631ZM24.2807-13.243 24.2807-11.837 20.6707-11.837 20.6707 0 18.9417 0 18.9417-11.837 15.3127-11.837 15.3127-13.243ZM41.3283-9.405C40.961-10.1777 40.429-10.7762 39.7323-11.2005 39.0357-11.6248 38.225-11.837 37.3003-11.837 36.3757-11.837 35.5428-11.6248 34.8018-11.2005 34.0608-10.7762 33.4782-10.1682 33.0538-9.3765 32.6295-8.58483 32.4173-7.66967 32.4173-6.631 32.4173-5.59233 32.6295-4.68033 33.0538-3.895 33.4782-3.10967 34.0608-2.50483 34.8018-2.0805 35.5428-1.65617 36.3757-1.444 37.3003-1.444 38.5923-1.444 39.6563-1.83033 40.4923-2.603 41.3283-3.37567 41.816-4.42067 41.9553-5.738L36.6733-5.738 36.6733-7.144 43.7983-7.144 43.7983-5.814C43.697-4.72467 43.355-3.72717 42.7723-2.8215 42.1897-1.91583 41.4233-1.20017 40.4733-0.6745 39.5233-0.148833 38.4657 0.114 37.3003 0.114 36.0717 0.114 34.9507-0.174167 33.9373-0.7505 32.924-1.32683 32.1228-2.128 31.5338-3.154 30.9448-4.18 30.6503-5.339 30.6503-6.631 30.6503-7.923 30.9448-9.08517 31.5338-10.1175 32.1228-11.1498 32.924-11.9542 33.9373-12.5305 34.9507-13.1068 36.0717-13.395 37.3003-13.395 38.7063-13.395 39.9508-13.0467 41.0338-12.35 42.1168-11.6533 42.9053-10.6717 43.3993-9.405ZM47.4873-13.243 47.4873-4.864C47.4873-3.686 47.7755-2.812 48.3518-2.242 48.9282-1.672 49.7293-1.387 50.7553-1.387 51.7687-1.387 52.5635-1.672 53.1398-2.242 53.7162-2.812 54.0043-3.686 54.0043-4.864L54.0043-13.243 55.7333-13.243 55.7333-4.883C55.7333-3.781 55.5117-2.85317 55.0683-2.0995 54.625-1.34583 54.0265-0.785333 53.2728-0.418 52.5192-0.0506667 51.6737 0.133 50.7363 0.133 49.799 0.133 48.9535-0.0506667 48.1998-0.418 47.4462-0.785333 46.8508-1.34583 46.4138-2.0995 45.9768-2.85317 45.7583-3.781 45.7583-4.883L45.7583-13.243ZM60.192-13.243 60.192 0 58.463 0 58.463-13.243Z" fill="#FFFFFF" transform="translate(14.4627 26)"/></g></g><text fill="#FFFFFF" font-family="Poppins,Poppins_MSFontService,sans-serif" font-weight="400" font-size="19" transform="translate(587.41 362)">QT GUI</text><path d="M748.5 464.834C748.5 456.917 754.917 450.5 762.834 450.5L915.167 450.5C923.083 450.5 929.5 456.917 929.5 464.834L929.5 522.167C929.5 530.083 923.083 536.5 915.167 536.5L762.834 536.5C754.917 536.5 748.5 530.083 748.5 522.167Z" stroke="#69CA00" stroke-width="1.33333" stroke-miterlimit="8" fill="#69CA00" fill-rule="evenodd"/><g clip-path="url(#clip15)" filter="url(#fx6)" transform="translate(772 474)"><g><path d="M12.407-13.243 7.41 0 5.415 0 0.418-13.243 2.261-13.243 6.422-1.824 10.583-13.243ZM15.8587-13.243 15.8587 0 14.1297 0 14.1297-13.243ZM26.9473-13.243 26.9473-11.837 23.3373-11.837 23.3373 0 21.6083 0 21.6083-11.837 17.9793-11.837 17.9793-13.243ZM30.692-11.837 30.692-7.41 35.518-7.41 35.518-5.985 30.692-5.985 30.692-1.425 36.088-1.425 36.088 0 28.963 0 28.963-13.262 36.088-13.262 36.088-11.837ZM43.897 0 41.427-3.876 39.052 0 37.247 0 40.61-5.168 37.247-10.412 39.204-10.412 41.674-6.555 44.03-10.412 45.835-10.412 42.491-5.263 45.854 0ZM56.963-5.605C56.963-5.27567 56.944-4.92733 56.906-4.56L48.584-4.56C48.6473-3.534 48.9988-2.73283 49.6385-2.1565 50.2782-1.58017 51.054-1.292 51.966-1.292 52.7133-1.292 53.3372-1.46617 53.8375-1.8145 54.3378-2.16283 54.6893-2.62833 54.892-3.211L56.754-3.211C56.4753-2.21033 55.918-1.3965 55.082-0.7695 54.246-0.1425 53.2073 0.171 51.966 0.171 50.978 0.171 50.0945-0.0506667 49.3155-0.494 48.5365-0.937333 47.9253-1.5675 47.482-2.3845 47.0387-3.2015 46.817-4.14833 46.817-5.225 46.817-6.30167 47.0323-7.24533 47.463-8.056 47.8937-8.86667 48.4985-9.4905 49.2775-9.9275 50.0565-10.3645 50.9527-10.583 51.966-10.583 52.954-10.583 53.828-10.3677 54.588-9.937 55.348-9.50633 55.9338-8.91417 56.3455-8.1605 56.7572-7.40683 56.963-6.555 56.963-5.605ZM55.177-5.966C55.177-6.62467 55.0313-7.1915 54.74-7.6665 54.4487-8.1415 54.0528-8.5025 53.5525-8.7495 53.0522-8.9965 52.498-9.12 51.89-9.12 51.016-9.12 50.2718-8.84133 49.6575-8.284 49.0432-7.72667 48.6917-6.954 48.603-5.966ZM58.317-5.225C58.317-6.30167 58.5323-7.24217 58.963-8.0465 59.3937-8.85083 59.9922-9.47467 60.7585-9.918 61.5248-10.3613 62.402-10.583 63.39-10.583 64.6693-10.583 65.7238-10.2727 66.5535-9.652 67.3832-9.03133 67.931-8.17 68.197-7.068L66.335-7.068C66.1577-7.70133 65.8125-8.20167 65.2995-8.569 64.7865-8.93633 64.15-9.12 63.39-9.12 62.402-9.12 61.604-8.78117 60.996-8.1035 60.388-7.42583 60.084-6.46633 60.084-5.225 60.084-3.971 60.388-3.002 60.996-2.318 61.604-1.634 62.402-1.292 63.39-1.292 64.15-1.292 64.7833-1.46933 65.29-1.824 65.7967-2.17867 66.145-2.68533 66.335-3.344L68.197-3.344C67.9183-2.28 67.361-1.42817 66.525-0.7885 65.689-0.148833 64.644 0.171 63.39 0.171 62.402 0.171 61.5248-0.0506667 60.7585-0.494 59.9922-0.937333 59.3937-1.56433 58.963-2.375 58.5323-3.18567 58.317-4.13567 58.317-5.225ZM79.5303-10.412 79.5303 0 77.8013 0 77.8013-1.539C77.472-1.007 77.0128-0.592167 76.4238-0.2945 75.8348 0.00316666 75.1857 0.152 74.4763 0.152 73.6657 0.152 72.9373-0.0158333 72.2913-0.3515 71.6453-0.687167 71.1355-1.19067 70.7618-1.862 70.3882-2.53333 70.2013-3.35033 70.2013-4.313L70.2013-10.412 71.9113-10.412 71.9113-4.541C71.9113-3.515 72.171-2.7265 72.6903-2.1755 73.2097-1.6245 73.919-1.349 74.8183-1.349 75.743-1.349 76.4713-1.634 77.0033-2.204 77.5353-2.774 77.8013-3.60367 77.8013-4.693L77.8013-10.412ZM84.4053-8.987 84.4053-2.85C84.4053-2.34333 84.513-1.9855 84.7283-1.7765 84.9437-1.5675 85.3173-1.463 85.8493-1.463L87.1223-1.463 87.1223 0 85.5643 0C84.6017 0 83.8797-0.221667 83.3983-0.665 82.917-1.10833 82.6763-1.83667 82.6763-2.85L82.6763-8.987 81.3273-8.987 81.3273-10.412 82.6763-10.412 82.6763-13.034 84.4053-13.034 84.4053-10.412 87.1223-10.412 87.1223-8.987ZM93.6707 0.171C92.6953 0.171 91.8118-0.0506667 91.0202-0.494 90.2285-0.937333 89.6078-1.5675 89.1582-2.3845 88.7085-3.2015 88.4837-4.14833 88.4837-5.225 88.4837-6.289 88.7148-7.2295 89.1772-8.0465 89.6395-8.8635 90.2697-9.4905 91.0677-9.9275 91.8657-10.3645 92.7587-10.583 93.7467-10.583 94.7347-10.583 95.6277-10.3645 96.4257-9.9275 97.2237-9.4905 97.8538-8.86667 98.3162-8.056 98.7785-7.24533 99.0097-6.30167 99.0097-5.225 99.0097-4.14833 98.7722-3.2015 98.2972-2.3845 97.8222-1.5675 97.1793-0.937333 96.3687-0.494 95.558-0.0506667 94.6587 0.171 93.6707 0.171ZM93.6707-1.349C94.2913-1.349 94.874-1.49467 95.4187-1.786 95.9633-2.07733 96.4035-2.51433 96.7392-3.097 97.0748-3.67967 97.2427-4.389 97.2427-5.225 97.2427-6.061 97.078-6.77033 96.7487-7.353 96.4193-7.93567 95.9887-8.3695 95.4567-8.6545 94.9247-8.9395 94.3483-9.082 93.7277-9.082 93.0943-9.082 92.5148-8.9395 91.9892-8.6545 91.4635-8.3695 91.0423-7.93567 90.7257-7.353 90.409-6.77033 90.2507-6.061 90.2507-5.225 90.2507-4.37633 90.4058-3.66067 90.7162-3.078 91.0265-2.49533 91.4413-2.0615 91.9607-1.7765 92.48-1.4915 93.05-1.349 93.6707-1.349ZM102.859-8.721C103.163-9.31633 103.596-9.77867 104.16-10.108 104.724-10.4373 105.411-10.602 106.222-10.602L106.222-8.816 105.766-8.816C103.828-8.816 102.859-7.76467 102.859-5.662L102.859 0 101.13 0 101.13-10.412 102.859-10.412Z" fill="#FFFFFF" transform="translate(14.3073 26)"/></g></g><text fill="#FFFFFF" font-family="Poppins,Poppins_MSFontService,sans-serif" font-weight="400" font-size="19" transform="translate(785.254 499)">VITExecutor</text><path d="M537.5 583.834C537.5 578.127 542.127 573.5 547.834 573.5L689.167 573.5C694.874 573.5 699.5 578.127 699.5 583.834L699.5 625.167C699.5 630.874 694.874 635.5 689.167 635.5L547.834 635.5C542.127 635.5 537.5 630.874 537.5 625.167Z" stroke="#69CA00" stroke-width="1.33333" stroke-miterlimit="8" fill="#69CA00" fill-rule="evenodd"/><g clip-path="url(#clip16)" filter="url(#fx7)" transform="translate(544 574)"><g><path d="M14.896-13.148 14.896 0 13.167 0 13.167-9.804 8.797 0 7.581 0 3.192-9.823 3.192 0 1.463 0 1.463-13.148 3.325-13.148 8.189-2.28 13.053-13.148ZM25.291-2.945 19.515-2.945 18.451 0 16.627 0 21.415-13.167 23.41-13.167 28.179 0 26.355 0ZM24.797-4.351 22.403-11.039 20.009-4.351ZM29.317-6.631C29.317-7.923 29.6083-9.08517 30.191-10.1175 30.7737-11.1498 31.5685-11.9573 32.5755-12.54 33.5825-13.1227 34.7003-13.414 35.929-13.414 37.373-13.414 38.6333-13.0657 39.71-12.369 40.7867-11.6723 41.572-10.6843 42.066-9.405L39.995-9.405C39.6277-10.203 39.0988-10.8173 38.4085-11.248 37.7182-11.6787 36.8917-11.894 35.929-11.894 35.0043-11.894 34.1747-11.6787 33.44-11.248 32.7053-10.8173 32.129-10.2062 31.711-9.4145 31.293-8.62283 31.084-7.695 31.084-6.631 31.084-5.57967 31.293-4.65817 31.711-3.8665 32.129-3.07483 32.7053-2.46367 33.44-2.033 34.1747-1.60233 35.0043-1.387 35.929-1.387 36.8917-1.387 37.7182-1.59917 38.4085-2.0235 39.0988-2.44783 39.6277-3.059 39.995-3.857L42.066-3.857C41.572-2.59033 40.7867-1.61183 39.71-0.9215 38.6333-0.231167 37.373 0.114 35.929 0.114 34.7003 0.114 33.5825-0.174167 32.5755-0.7505 31.5685-1.32683 30.7737-2.128 30.191-3.154 29.6083-4.18 29.317-5.339 29.317-6.631ZM57.1243-2.945 51.3483-2.945 50.2843 0 48.4603 0 53.2483-13.167 55.2433-13.167 60.0123 0 58.1883 0ZM56.6303-4.351 54.2363-11.039 51.8423-4.351ZM61.1503-5.244C61.1503-6.308 61.3657-7.24217 61.7963-8.0465 62.227-8.85083 62.8192-9.47467 63.5728-9.918 64.3265-10.3613 65.172-10.583 66.1093-10.583 66.92-10.583 67.6737-10.3962 68.3703-10.0225 69.067-9.64883 69.599-9.158 69.9663-8.55L69.9663-14.06 71.7143-14.06 71.7143 0 69.9663 0 69.9663-1.957C69.6243-1.33633 69.1177-0.8265 68.4463-0.4275 67.775-0.0285 66.9897 0.171 66.0903 0.171 65.1657 0.171 64.3265-0.057 63.5728-0.513 62.8192-0.969 62.227-1.60867 61.7963-2.432 61.3657-3.25533 61.1503-4.19267 61.1503-5.244ZM69.9663-5.225C69.9663-6.01033 69.808-6.69433 69.4913-7.277 69.1747-7.85967 68.7472-8.30617 68.2088-8.6165 67.6705-8.92683 67.0783-9.082 66.4323-9.082 65.7863-9.082 65.1973-8.93 64.6653-8.626 64.1333-8.322 63.709-7.87867 63.3923-7.296 63.0757-6.71333 62.9173-6.02933 62.9173-5.244 62.9173-4.446 63.0757-3.7525 63.3923-3.1635 63.709-2.5745 64.1333-2.12483 64.6653-1.8145 65.1973-1.50417 65.7863-1.349 66.4323-1.349 67.0783-1.349 67.6705-1.50417 68.2088-1.8145 68.7472-2.12483 69.1747-2.5745 69.4913-3.1635 69.808-3.7525 69.9663-4.43967 69.9663-5.225ZM73.817-5.244C73.817-6.308 74.0323-7.24217 74.463-8.0465 74.8937-8.85083 75.4858-9.47467 76.2395-9.918 76.9932-10.3613 77.8387-10.583 78.776-10.583 79.5867-10.583 80.3403-10.3962 81.037-10.0225 81.7337-9.64883 82.2657-9.158 82.633-8.55L82.633-14.06 84.381-14.06 84.381 0 82.633 0 82.633-1.957C82.291-1.33633 81.7843-0.8265 81.113-0.4275 80.4417-0.0285 79.6563 0.171 78.757 0.171 77.8323 0.171 76.9932-0.057 76.2395-0.513 75.4858-0.969 74.8937-1.60867 74.463-2.432 74.0323-3.25533 73.817-4.19267 73.817-5.244ZM82.633-5.225C82.633-6.01033 82.4747-6.69433 82.158-7.277 81.8413-7.85967 81.4138-8.30617 80.8755-8.6165 80.3372-8.92683 79.745-9.082 79.099-9.082 78.453-9.082 77.864-8.93 77.332-8.626 76.8-8.322 76.3757-7.87867 76.059-7.296 75.7423-6.71333 75.584-6.02933 75.584-5.244 75.584-4.446 75.7423-3.7525 76.059-3.1635 76.3757-2.5745 76.8-2.12483 77.332-1.8145 77.864-1.50417 78.453-1.349 79.099-1.349 79.745-1.349 80.3372-1.50417 80.8755-1.8145 81.4138-2.12483 81.8413-2.5745 82.158-3.1635 82.4747-3.7525 82.633-4.43967 82.633-5.225ZM88.8587-8.721C89.1627-9.31633 89.5965-9.77867 90.1602-10.108 90.7238-10.4373 91.411-10.602 92.2217-10.602L92.2217-8.816 91.7657-8.816C89.8277-8.816 88.8587-7.76467 88.8587-5.662L88.8587 0 87.1297 0 87.1297-10.412 88.8587-10.412ZM103.63-5.605C103.63-5.27567 103.611-4.92733 103.573-4.56L95.2507-4.56C95.314-3.534 95.6655-2.73283 96.3052-2.1565 96.9448-1.58017 97.7207-1.292 98.6327-1.292 99.38-1.292 100.004-1.46617 100.504-1.8145 101.004-2.16283 101.356-2.62833 101.559-3.211L103.421-3.211C103.142-2.21033 102.585-1.3965 101.749-0.7695 100.913-0.1425 99.874 0.171 98.6327 0.171 97.6447 0.171 96.7612-0.0506667 95.9822-0.494 95.2032-0.937333 94.592-1.5675 94.1487-2.3845 93.7053-3.2015 93.4837-4.14833 93.4837-5.225 93.4837-6.30167 93.699-7.24533 94.1297-8.056 94.5603-8.86667 95.1652-9.4905 95.9442-9.9275 96.7232-10.3645 97.6193-10.583 98.6327-10.583 99.6207-10.583 100.495-10.3677 101.255-9.937 102.015-9.50633 102.6-8.91417 103.012-8.1605 103.424-7.40683 103.63-6.555 103.63-5.605ZM101.844-5.966C101.844-6.62467 101.698-7.1915 101.407-7.6665 101.115-8.1415 100.719-8.5025 100.219-8.7495 99.7188-8.9965 99.1647-9.12 98.5567-9.12 97.6827-9.12 96.9385-8.84133 96.3242-8.284 95.7098-7.72667 95.3583-6.954 95.2697-5.966ZM109.316 0.171C108.518 0.171 107.802 0.0348333 107.169-0.2375 106.535-0.509833 106.035-0.889833 105.668-1.3775 105.3-1.86517 105.098-2.42567 105.06-3.059L106.846-3.059C106.896-2.53967 107.14-2.11533 107.577-1.786 108.014-1.45667 108.587-1.292 109.297-1.292 109.955-1.292 110.475-1.43767 110.855-1.729 111.235-2.02033 111.425-2.38767 111.425-2.831 111.425-3.287 111.222-3.62583 110.817-3.8475 110.411-4.06917 109.784-4.28767 108.936-4.503 108.163-4.70567 107.533-4.9115 107.045-5.1205 106.557-5.3295 106.139-5.63983 105.791-6.0515 105.443-6.46317 105.269-7.00467 105.269-7.676 105.269-8.208 105.427-8.69567 105.744-9.139 106.06-9.58233 106.51-9.93383 107.093-10.1935 107.675-10.4532 108.34-10.583 109.088-10.583 110.24-10.583 111.171-10.2917 111.881-9.709 112.59-9.12633 112.97-8.32833 113.021-7.315L111.292-7.315C111.254-7.85967 111.035-8.29667 110.636-8.626 110.237-8.95533 109.702-9.12 109.031-9.12 108.41-9.12 107.916-8.987 107.549-8.721 107.181-8.455 106.998-8.10667 106.998-7.676 106.998-7.334 107.108-7.05217 107.33-6.8305 107.552-6.60883 107.83-6.4315 108.166-6.2985 108.502-6.1655 108.967-6.01667 109.563-5.852 110.31-5.64933 110.918-5.44983 111.387-5.2535 111.855-5.05717 112.257-4.76267 112.593-4.37 112.929-3.97733 113.103-3.46433 113.116-2.831 113.116-2.261 112.957-1.748 112.641-1.292 112.324-0.836 111.877-0.478167 111.301-0.2185 110.725 0.0411667 110.063 0.171 109.316 0.171ZM118.982 0.171C118.184 0.171 117.469 0.0348333 116.835-0.2375 116.202-0.509833 115.702-0.889833 115.334-1.3775 114.967-1.86517 114.764-2.42567 114.726-3.059L116.512-3.059C116.563-2.53967 116.807-2.11533 117.244-1.786 117.681-1.45667 118.254-1.292 118.963-1.292 119.622-1.292 120.141-1.43767 120.521-1.729 120.901-2.02033 121.091-2.38767 121.091-2.831 121.091-3.287 120.889-3.62583 120.483-3.8475 120.078-4.06917 119.451-4.28767 118.602-4.503 117.83-4.70567 117.199-4.9115 116.712-5.1205 116.224-5.3295 115.806-5.63983 115.458-6.0515 115.109-6.46317 114.935-7.00467 114.935-7.676 114.935-8.208 115.094-8.69567 115.41-9.139 115.727-9.58233 116.177-9.93383 116.759-10.1935 117.342-10.4532 118.007-10.583 118.754-10.583 119.907-10.583 120.838-10.2917 121.547-9.709 122.257-9.12633 122.637-8.32833 122.687-7.315L120.958-7.315C120.92-7.85967 120.702-8.29667 120.303-8.626 119.904-8.95533 119.369-9.12 118.697-9.12 118.077-9.12 117.583-8.987 117.215-8.721 116.848-8.455 116.664-8.10667 116.664-7.676 116.664-7.334 116.775-7.05217 116.997-6.8305 117.218-6.60883 117.497-6.4315 117.833-6.2985 118.168-6.1655 118.634-6.01667 119.229-5.852 119.977-5.64933 120.585-5.44983 121.053-5.2535 121.522-5.05717 121.924-4.76267 122.26-4.37 122.595-3.97733 122.77-3.46433 122.782-2.831 122.782-2.261 122.624-1.748 122.307-1.292 121.991-0.836 121.544-0.478167 120.968-0.2185 120.391 0.0411667 119.73 0.171 118.982 0.171Z" fill="#FFFFFF" transform="translate(13.5494 25)"/></g></g><text fill="#FFFFFF" font-family="Poppins,Poppins_MSFontService,sans-serif" font-weight="400" font-size="19" transform="translate(556.496 598)">MAC Address</text><g clip-path="url(#clip17)" filter="url(#fx8)" transform="translate(566 597)"><g><path d="M13.984-10.602C14.7947-10.602 15.5167-10.4342 16.15-10.0985 16.7833-9.76283 17.2837-9.25933 17.651-8.588 18.0183-7.91667 18.202-7.09967 18.202-6.137L18.202 0 16.492 0 16.492-5.89C16.492-6.92867 16.2355-7.7235 15.7225-8.2745 15.2095-8.8255 14.516-9.101 13.642-9.101 12.7427-9.101 12.027-8.81283 11.495-8.2365 10.963-7.66017 10.697-6.82733 10.697-5.738L10.697 0 8.987 0 8.987-5.89C8.987-6.92867 8.7305-7.7235 8.2175-8.2745 7.7045-8.8255 7.011-9.101 6.137-9.101 5.23767-9.101 4.522-8.81283 3.99-8.2365 3.458-7.66017 3.192-6.82733 3.192-5.738L3.192 0 1.463 0 1.463-10.412 3.192-10.412 3.192-8.911C3.534-9.45567 3.99317-9.87367 4.5695-10.165 5.14583-10.4563 5.78233-10.602 6.479-10.602 7.353-10.602 8.12567-10.4057 8.797-10.013 9.46833-9.62033 9.96867-9.044 10.298-8.284 10.5893-9.01867 11.0707-9.58867 11.742-9.994 12.4133-10.3993 13.1607-10.602 13.984-10.602ZM19.9837-5.244C19.9837-6.308 20.199-7.24217 20.6297-8.0465 21.0603-8.85083 21.6525-9.47467 22.4062-9.918 23.1598-10.3613 24.0053-10.583 24.9427-10.583 25.842-10.583 26.6305-10.3835 27.3082-9.9845 27.9858-9.5855 28.483-9.09467 28.7997-8.512L28.7997-10.412 30.5477-10.412 30.5477 4.94 28.7997 4.94 28.7997-1.919C28.4703-1.33633 27.9637-0.842333 27.2797-0.437 26.5957-0.0316667 25.7977 0.171 24.8857 0.171 23.9737 0.171 23.144-0.057 22.3967-0.513 21.6493-0.969 21.0603-1.60867 20.6297-2.432 20.199-3.25533 19.9837-4.19267 19.9837-5.244ZM28.7997-5.225C28.7997-6.01033 28.6413-6.69433 28.3247-7.277 28.008-7.85967 27.5805-8.30617 27.0422-8.6165 26.5038-8.92683 25.9117-9.082 25.2657-9.082 24.6197-9.082 24.0307-8.93 23.4987-8.626 22.9667-8.322 22.5423-7.87867 22.2257-7.296 21.909-6.71333 21.7507-6.02933 21.7507-5.244 21.7507-4.446 21.909-3.7525 22.2257-3.1635 22.5423-2.5745 22.9667-2.12483 23.4987-1.8145 24.0307-1.50417 24.6197-1.349 25.2657-1.349 25.9117-1.349 26.5038-1.50417 27.0422-1.8145 27.5805-2.12483 28.008-2.5745 28.3247-3.1635 28.6413-3.7525 28.7997-4.43967 28.7997-5.225ZM42.5303-10.412 42.5303 0 40.8013 0 40.8013-1.539C40.472-1.007 40.0128-0.592167 39.4238-0.2945 38.8348 0.00316666 38.1857 0.152 37.4763 0.152 36.6657 0.152 35.9373-0.0158333 35.2913-0.3515 34.6453-0.687167 34.1355-1.19067 33.7618-1.862 33.3882-2.53333 33.2013-3.35033 33.2013-4.313L33.2013-10.412 34.9113-10.412 34.9113-4.541C34.9113-3.515 35.171-2.7265 35.6903-2.1755 36.2097-1.6245 36.919-1.349 37.8183-1.349 38.743-1.349 39.4713-1.634 40.0033-2.204 40.5353-2.774 40.8013-3.60367 40.8013-4.693L40.8013-10.412ZM54.7963-5.605C54.7963-5.27567 54.7773-4.92733 54.7393-4.56L46.4173-4.56C46.4807-3.534 46.8322-2.73283 47.4718-2.1565 48.1115-1.58017 48.8873-1.292 49.7993-1.292 50.5467-1.292 51.1705-1.46617 51.6708-1.8145 52.1712-2.16283 52.5227-2.62833 52.7253-3.211L54.5873-3.211C54.3087-2.21033 53.7513-1.3965 52.9153-0.7695 52.0793-0.1425 51.0407 0.171 49.7993 0.171 48.8113 0.171 47.9278-0.0506667 47.1488-0.494 46.3698-0.937333 45.7587-1.5675 45.3153-2.3845 44.872-3.2015 44.6503-4.14833 44.6503-5.225 44.6503-6.30167 44.8657-7.24533 45.2963-8.056 45.727-8.86667 46.3318-9.4905 47.1108-9.9275 47.8898-10.3645 48.786-10.583 49.7993-10.583 50.7873-10.583 51.6613-10.3677 52.4213-9.937 53.1813-9.50633 53.7672-8.91417 54.1788-8.1605 54.5905-7.40683 54.7963-6.555 54.7963-5.605ZM53.0103-5.966C53.0103-6.62467 52.8647-7.1915 52.5733-7.6665 52.282-8.1415 51.8862-8.5025 51.3858-8.7495 50.8855-8.9965 50.3313-9.12 49.7233-9.12 48.8493-9.12 48.1052-8.84133 47.4908-8.284 46.8765-7.72667 46.525-6.954 46.4363-5.966ZM66.0303-10.412 66.0303 0 64.3013 0 64.3013-1.539C63.972-1.007 63.5128-0.592167 62.9238-0.2945 62.3348 0.00316666 61.6857 0.152 60.9763 0.152 60.1657 0.152 59.4373-0.0158333 58.7913-0.3515 58.1453-0.687167 57.6355-1.19067 57.2618-1.862 56.8882-2.53333 56.7013-3.35033 56.7013-4.313L56.7013-10.412 58.4113-10.412 58.4113-4.541C58.4113-3.515 58.671-2.7265 59.1903-2.1755 59.7097-1.6245 60.419-1.349 61.3183-1.349 62.243-1.349 62.9713-1.634 63.5033-2.204 64.0353-2.774 64.3013-3.60367 64.3013-4.693L64.3013-10.412ZM78.2963-5.605C78.2963-5.27567 78.2773-4.92733 78.2393-4.56L69.9173-4.56C69.9807-3.534 70.3322-2.73283 70.9718-2.1565 71.6115-1.58017 72.3873-1.292 73.2993-1.292 74.0467-1.292 74.6705-1.46617 75.1708-1.8145 75.6712-2.16283 76.0227-2.62833 76.2253-3.211L78.0873-3.211C77.8087-2.21033 77.2513-1.3965 76.4153-0.7695 75.5793-0.1425 74.5407 0.171 73.2993 0.171 72.3113 0.171 71.4278-0.0506667 70.6488-0.494 69.8698-0.937333 69.2587-1.5675 68.8153-2.3845 68.372-3.2015 68.1503-4.14833 68.1503-5.225 68.1503-6.30167 68.3657-7.24533 68.7963-8.056 69.227-8.86667 69.8318-9.4905 70.6108-9.9275 71.3898-10.3645 72.286-10.583 73.2993-10.583 74.2873-10.583 75.1613-10.3677 75.9213-9.937 76.6813-9.50633 77.2672-8.91417 77.6788-8.1605 78.0905-7.40683 78.2963-6.555 78.2963-5.605ZM76.5103-5.966C76.5103-6.62467 76.3647-7.1915 76.0733-7.6665 75.782-8.1415 75.3862-8.5025 74.8858-8.7495 74.3855-8.9965 73.8313-9.12 73.2233-9.12 72.3493-9.12 71.6052-8.84133 70.9908-8.284 70.3765-7.72667 70.025-6.954 69.9363-5.966Z" fill="#FFFFFF" transform="translate(13.8827 25)"/></g></g><text fill="#FFFFFF" font-family="Poppins,Poppins_MSFontService,sans-serif" font-weight="400" font-size="19" transform="translate(578.83 621)">mqueue</text><text fill="#0EAFE0" font-family="Poppins,Poppins_MSFontService,sans-serif" font-weight="400" font-size="16" transform="translate(535.304 662)">One</text><text fill="#0EAFE0" font-family="Poppins,Poppins_MSFontService,sans-serif" font-weight="400" font-size="16" transform="translate(567.97 662)">-</text><text fill="#0EAFE0" font-family="Poppins,Poppins_MSFontService,sans-serif" font-weight="400" font-size="16" transform="translate(576.804 662)">time execution</text><text fill="#0EAFE0" font-family="Poppins,Poppins_MSFontService,sans-serif" font-weight="400" font-size="16" transform="translate(846.265 404)">Filtered Voice</text><text fill="#0EAFE0" font-family="Poppins,Poppins_MSFontService,sans-serif" font-weight="400" font-size="16" transform="translate(854.432 431)">Commands</text><path d="M838.833 374.497 839.447 443.62 838.78 443.626 838.167 374.503ZM843.101 442.254 839.172 450.289 835.102 442.325Z" fill="#F9B500"/><path d="M0-0.333333 139.586-0.333333 139.586 61.1114 138.919 61.1114 138.919 0 139.253 0.333333 0 0.333333ZM143.253 59.7781 139.253 67.7781 135.253 59.7781Z" fill="#F9B500" transform="matrix(1 0 0 -1 699.5 604.278)"/><path d="M0.333333-1.75825e-07 0.333435 192.37-0.333232 192.37-0.333333 1.75825e-07ZM4.0001 191.037 0.000104987 199.037-3.9999 191.037Z" fill="#F9B500" transform="matrix(1 0 0 -1 618.5 573.537)"/><path d="M780.5 172.125C780.5 177.441 807.811 181.75 841.5 181.75 875.189 181.75 902.5 177.441 902.5 172.125L902.5 229.875C902.5 235.191 875.189 239.5 841.5 239.5 807.811 239.5 780.5 235.191 780.5 229.875Z" fill="#F9B500" fill-rule="evenodd"/><path d="M780.5 172.125C780.5 166.809 807.811 162.5 841.5 162.5 875.189 162.5 902.5 166.809 902.5 172.125 902.5 177.441 875.189 181.75 841.5 181.75 807.811 181.75 780.5 177.441 780.5 172.125Z" fill="#FBD366" fill-rule="evenodd"/><path d="M902.5 172.125C902.5 177.441 875.189 181.75 841.5 181.75 807.811 181.75 780.5 177.441 780.5 172.125 780.5 166.809 807.811 162.5 841.5 162.5 875.189 162.5 902.5 166.809 902.5 172.125L902.5 229.875C902.5 235.191 875.189 239.5 841.5 239.5 807.811 239.5 780.5 235.191 780.5 229.875L780.5 172.125" stroke="#69CA00" stroke-width="1.33333" stroke-miterlimit="8" fill="none" fill-rule="evenodd"/><text font-family="Poppins,Poppins_MSFontService,sans-serif" font-weight="400" font-size="19" transform="translate(791.919 207)">WW Model</text><path d="M774.5 271.125C774.5 276.441 802.035 280.75 836 280.75 869.966 280.75 897.5 276.441 897.5 271.125L897.5 328.875C897.5 334.191 869.966 338.5 836 338.5 802.035 338.5 774.5 334.191 774.5 328.875Z" fill="#F9B500" fill-rule="evenodd"/><path d="M774.5 271.125C774.5 265.809 802.035 261.5 836 261.5 869.966 261.5 897.5 265.809 897.5 271.125 897.5 276.441 869.966 280.75 836 280.75 802.035 280.75 774.5 276.441 774.5 271.125Z" fill="#FBD366" fill-rule="evenodd"/><path d="M897.5 271.125C897.5 276.441 869.966 280.75 836 280.75 802.035 280.75 774.5 276.441 774.5 271.125 774.5 265.809 802.035 261.5 836 261.5 869.966 261.5 897.5 265.809 897.5 271.125L897.5 328.875C897.5 334.191 869.966 338.5 836 338.5 802.035 338.5 774.5 334.191 774.5 328.875L774.5 271.125" stroke="#69CA00" stroke-width="1.33333" stroke-miterlimit="8" fill="none" fill-rule="evenodd"/><text font-family="Poppins,Poppins_MSFontService,sans-serif" font-weight="400" font-size="19" transform="translate(782.947 306)">CMD Model</text><path d="M1055.5 137 946.5 137 946.5 142.5 935.5 131.5 946.5 120.5 946.5 126 1055.5 126Z" stroke="#0EAFE0" stroke-width="1.33333" stroke-miterlimit="8" fill="#0EAFE0" fill-rule="evenodd"/><path d="M935.5 57.0001 1044.5 57.0001 1044.5 51.5001 1055.5 62.5001 1044.5 73.5001 1044.5 68.0001 935.5 68.0001Z" stroke="#0EAFE0" stroke-width="1.33333" stroke-miterlimit="8" fill="#0EAFE0" fill-rule="evenodd"/><g><g><g><path d="M39.0996 34.7145C39.6303 33.8972 39.7146 32.8736 39.3186 31.9806 38.7204 30.6326 38.0465 28.6486 37.3346 26.5424 36.1593 23.0756 34.9419 19.4866 33.7582 17.8058 30.7379 13.5134 25.801 10.948 20.5481 10.948L15.5564 10.948C7.28746 10.948 0.311718 17.3972 0.0126372 25.3208-0.155859 29.7017 1.60071 33.9057 4.83163 36.8838L4.83163 49.4495C4.83163 50.035 5.30763 50.511 5.89316 50.511L7.10212 50.511C7.68764 50.511 8.16365 50.035 8.16365 49.4495L8.16365 35.3969 7.20743 34.5417C4.6168 32.2207 3.20985 28.9055 3.34044 25.4472 3.57633 19.2928 9.05668 14.2801 15.5564 14.2801L20.5439 14.2801C24.71 14.2801 28.6317 16.3147 31.0286 19.7225 31.9343 21.0115 33.1727 24.6636 34.1753 27.6123 34.8113 29.4869 35.4179 31.2729 35.995 32.6883L31.4035 32.6883 31.4035 40.3928C31.4035 41.4711 30.5273 42.3473 29.4489 42.3473L21.7402 42.3473 21.7402 49.4495C21.7402 50.035 22.2162 50.511 22.8018 50.511L24.0107 50.511C24.5962 50.511 25.0723 50.035 25.0723 49.4495L25.0723 45.6793 29.4447 45.6793C32.3597 45.6793 34.7355 43.3078 34.7355 40.3886L34.7355 36.0203 36.6901 36.0203C37.6631 36.0203 38.5646 35.5317 39.0996 34.7145Z" fill="#00B0F0" transform="matrix(-1 0 0 1.01515 1134 93)"/><path d="M27.031 25.9021C27.031 24.5668 25.9484 23.4884 24.6173 23.4884 23.2862 23.4884 22.2036 24.571 22.2036 25.9021 22.2036 27.2374 23.2862 28.3158 24.6173 28.3158 25.9484 28.3158 27.031 27.2332 27.031 25.9021Z" fill="#00B0F0" transform="matrix(-1 0 0 1.01515 1134 93)"/><path d="M38.7499 38.1939C38.097 38.1939 37.5705 38.7204 37.5705 39.3734L37.5705 43.5437C37.5705 44.1966 38.097 44.7231 38.7499 44.7231 39.4029 44.7231 39.9294 44.1966 39.9294 43.5437L39.9294 39.3734C39.9294 38.7247 39.3986 38.1939 38.7499 38.1939Z" fill="#00B0F0" transform="matrix(-1 0 0 1.01515 1134 93)"/><path d="M42.4737 36.2014C41.8208 36.2014 41.2942 36.728 41.2942 37.3809L41.2942 45.5403C41.2942 46.1933 41.8208 46.7198 42.4737 46.7198 43.1266 46.7198 43.6532 46.1933 43.6532 45.5403L43.6532 37.3809C43.6532 36.728 43.1224 36.2014 42.4737 36.2014Z" fill="#00B0F0" transform="matrix(-1 0 0 1.01515 1134 93)"/><path d="M46.1975 39.1333C45.5446 39.1333 45.018 39.6598 45.018 40.3127L45.018 42.6085C45.018 43.2614 45.5446 43.788 46.1975 43.788 46.8504 43.788 47.3769 43.2614 47.3769 42.6085L47.3769 40.3127C47.3769 39.6598 46.8504 39.1333 46.1975 39.1333Z" fill="#00B0F0" transform="matrix(-1 0 0 1.01515 1134 93)"/><path d="M49.9212 34.032C49.2683 34.032 48.7418 34.5586 48.7418 35.2115L48.7418 47.7055C48.7418 48.3584 49.2683 48.885 49.9212 48.885 50.5742 48.885 51.1007 48.3584 51.1007 47.7055L51.1007 35.2115C51.1007 34.5628 50.5742 34.032 49.9212 34.032Z" fill="#00B0F0" transform="matrix(-1 0 0 1.01515 1134 93)"/><path d="M53.6492 36.4542C52.9963 36.4542 52.4697 36.9807 52.4697 37.6336L52.4697 45.2834C52.4697 45.9363 52.9963 46.4629 53.6492 46.4629 54.3021 46.4629 54.8287 45.9363 54.8287 45.2834L54.8287 37.6336C54.8287 36.9849 54.2979 36.4542 53.6492 36.4542Z" fill="#00B0F0" transform="matrix(-1 0 0 1.01515 1134 93)"/><path d="M57.373 30.8475C56.7201 30.8475 56.1935 31.374 56.1935 32.0269L56.1935 50.8943C56.1935 51.5472 56.7201 52.0738 57.373 52.0738 58.0259 52.0738 58.5525 51.5472 58.5525 50.8943L58.5525 32.0269C58.5525 31.374 58.0259 30.8475 57.373 30.8475Z" fill="#00B0F0" transform="matrix(-1 0 0 1.01515 1134 93)"/><path d="M61.0968 37.8569C60.4438 37.8569 59.9173 38.3835 59.9173 39.0364L59.9173 43.8806C59.9173 44.5336 60.4438 45.0601 61.0968 45.0601 61.7497 45.0601 62.2762 44.5336 62.2762 43.8806L62.2762 39.0364C62.2762 38.3877 61.7497 37.8569 61.0968 37.8569Z" fill="#00B0F0" transform="matrix(-1 0 0 1.01515 1134 93)"/><path d="M64.8205 34.032C64.1676 34.032 63.6411 34.5586 63.6411 35.2115L63.6411 47.7055C63.6411 48.3584 64.1676 48.885 64.8205 48.885 65.4734 48.885 66 48.3584 66 47.7055L66 35.2115C66 34.5628 65.4734 34.032 64.8205 34.032Z" fill="#00B0F0" transform="matrix(-1 0 0 1.01515 1134 93)"/></g></g></g><path d="M1126.8 49.2562C1126.8 49.2562 1126.8 49.2562 1126.8 49.2562 1126.67 49.1281 1126.4 49 1126.13 49 1125.87 49 1125.6 49.1281 1125.47 49.2562 1124.27 50.4093 1124.27 50.4093 1124.27 50.4093 1124 50.6655 1124 51.306 1124.27 51.6904 1128.27 55.79 1130.53 61.2989 1130.53 67.0641 1130.53 72.8292 1128.27 78.21 1124.27 82.4377 1124 82.8221 1124 83.3345 1124.27 83.7189 1125.47 84.7438 1125.47 84.7438 1125.47 84.7438 1125.6 85 1125.87 85 1126.13 85 1126.13 85 1126.13 85 1126.13 85 1126.4 85 1126.53 85 1126.8 84.7438 1126.8 84.7438 1126.8 84.7438 1126.8 84.7438 1131.47 80.0036 1134 73.5979 1134 67.0641 1134 60.4021 1131.47 54.1246 1126.8 49.2562Z" fill="#00B0F0" fill-rule="evenodd"/><path d="M1098.56 49C1097.92 49 1097.28 49.2581 1096.76 49.7742 1088.68 57.9032 1088.68 57.9032 1088.68 57.9032 1079.44 57.9032 1079.44 57.9032 1079.44 57.9032 1078.03 57.9032 1077 59.0645 1077 60.3548 1077 73.6452 1077 73.6452 1077 73.6452 1077 75.0645 1078.03 76.0968 1079.44 76.0968 1088.68 76.0968 1088.68 76.0968 1088.68 76.0968 1096.76 84.3548 1096.76 84.3548 1096.76 84.3548 1097.28 84.7419 1097.92 85 1098.56 85 1099.72 85 1101 84.0968 1101 82.5484 1101 51.4516 1101 51.4516 1101 51.4516 1101 49.9032 1099.72 49 1098.56 49ZM1097.53 80.2258C1090.09 72.7419 1090.09 72.7419 1090.09 72.7419 1080.47 72.7419 1080.47 72.7419 1080.47 72.7419 1080.47 61.3871 1080.47 61.3871 1080.47 61.3871 1090.09 61.3871 1090.09 61.3871 1090.09 61.3871 1097.53 53.9032 1097.53 53.9032 1097.53 53.9032L1097.53 80.2258Z" fill="#00B0F0" fill-rule="evenodd"/><path d="M1117.5 55.3956C1117.5 55.3956 1117.5 55.3956 1117.5 55.3956 1116.27 56.5824 1116.27 56.5824 1116.27 56.5824 1116 56.8462 1116 57.5055 1116.27 57.9011 1121.05 63.1758 1121.05 71.0879 1116.27 76.3626 1116 76.7582 1116 77.2857 1116.27 77.6813 1117.5 78.7363 1117.5 78.7363 1117.5 78.7363 1117.64 79 1117.91 79 1118.18 79 1118.18 79 1118.18 79 1118.18 79 1118.45 79 1118.73 79 1118.86 78.7363 1118.86 78.7363 1118.86 78.7363 1118.86 78.7363 1125 72.1429 1125 62.1209 1118.86 55.5275 1118.45 55.1319 1117.91 55 1117.5 55.3956Z" fill="#00B0F0" fill-rule="evenodd"/><path d="M1109.86 62.6173C1108.71 63.6049 1108.71 63.6049 1108.71 63.6049 1108 64.0988 1108.29 64.4691 1108.57 64.716 1108.57 64.716 1108.71 64.8395 1108.86 65.2099 1109.29 65.8272 1109.43 66.5679 1109.43 67.1852 1109.43 67.8025 1109.29 68.5432 1108.71 69.284 1108.29 70.0247 1108.29 70.2716 1108.86 70.642 1108.86 70.642 1109.43 71.0123 1110 71.5062 1110.57 72 1111.43 71.5062 1111.71 71.0123 1112.57 69.9012 1113 68.5432 1113 67.1852 1113 65.7037 1112.43 64.2222 1111.43 62.8642 1111.14 62.6173 1110.57 62 1109.86 62.6173Z" fill="#00B0F0" fill-rule="evenodd"/><path d="M237.058 103.774C237.442 104 238.019 103.925 238.404 103.698 250.519 95.7073 250.519 95.7073 250.519 95.7073 250.808 95.5565 251 95.255 251 94.9534 251 94.6519 250.808 94.3503 250.519 94.1996 239.558 86.9623 239.558 86.9623 239.558 86.9623 250.519 79.8004 250.519 79.8004 250.519 79.8004 250.808 79.5743 251 79.3481 251 79.0466 251 78.745 250.808 78.4435 250.519 78.2927 238.404 70.3016 238.404 70.3016 238.404 70.3016 238.019 70.0754 237.442 70 237.058 70.1508 236.577 70.3016 236.288 70.6785 236.288 71.0554 236.288 84.5499 236.288 84.5499 236.288 84.5499 228.308 78.2927 228.308 78.2927 228.308 78.2927 227.827 77.9157 227.058 77.9157 226.481 78.2927 226 78.745 226 79.3481 226.481 79.7251 235.808 86.9623 235.808 86.9623 235.808 86.9623 226.481 94.2749 226.481 94.2749 226.481 94.2749 226 94.6519 226 95.255 226.481 95.6319 227.058 96.0089 227.827 96.0089 228.308 95.6319 236.288 89.3747 236.288 89.3747 236.288 89.3747 236.288 102.869 236.288 102.869 236.288 102.869 236.288 103.322 236.577 103.623 237.058 103.774ZM238.885 73.2417C247.731 79.0466 247.731 79.0466 247.731 79.0466 238.885 84.8514 238.885 84.8514 238.885 84.8514L238.885 73.2417ZM238.885 89.1486C247.731 94.9534 247.731 94.9534 247.731 94.9534 238.885 100.758 238.885 100.758 238.885 100.758L238.885 89.1486Z" fill="#FFFFFF" fill-rule="evenodd"/></g></svg>